<?xml version="1.0" encoding="UTF-8"?>
<!DOCTYPE svg PUBLIC "-//W3C//DTD SVG 1.1//EN" "http://www.w3.org/Graphics/SVG/1.1/DTD/svg11.dtd">
<svg xmlns="http://www.w3.org/2000/svg" width="525px" height="630px" style="shape-rendering:geometricPrecision; text-rendering:geometricPrecision; image-rendering:optimizeQuality; fill-rule:evenodd; clip-rule:evenodd; stroke:#DBDBDB; stroke-width:3;stroke-linecap:round;stroke-linejoin:round; fill:#6bb565" viewBox="0 0 5250 6300">
 <g id="Layer_x0020_1">
  <metadata id="CorelCorpID_0Corel-Layer"/>
  <g id="_139065328">
   <polyline id="_140562584" class="str1" points="417.915,3211.57 437.953,3202.41 455.409,3224.72 473.067,3190.06 542.297,3139.08 535.157,3127.53 564.319,3111.6 560.746,3102.24 519.094,3122.55 516.909,3069.98 585.549,2981.96 582.567,2859.69 524.841,2794.77 539.522,2754.54 496.276,2744.39 500.841,2706.15 456.998,2690.42 476.634,2668.71 454.813,2626.3 511.748,2601.21 565.11,2614.15 535.157,2573.13 554.008,2566.56 579.591,2591.85 611.728,2589.66 673.825,2622.71 665.888,2590.26 705.963,2603.99 808.323,2555.01 825.78,2570.94 873.98,2519.76 876.36,2499.64 827.959,2464.4 808.323,2462.81 811.896,2437.71 833.114,2436.92 843.431,2400.87 888.661,2402.47 899.575,2372.79 941.232,2344.71 952.341,2318.83 988.843,2310.27 971.976,2275.02 991.618,2228.02 988.843,2187 976.341,2185.6 952.937,2131.64 936.868,2156.13 848.593,2139.6 814.075,2117.3 817.843,2090.62 804.75,2069.7 849.98,2062.54 826.571,2041.63 826.571,2020.71 819.23,2013.55 832.524,1995.63 903.933,1991.84 920.799,1999.81 983.687,2006.38 998.362,1839.3 1037.65,1783.15 1060.45,1719.81 1055.89,1636.78 1042.2,1625.83 1061.84,1581.81 1057.68,1545.37 1076.92,1480.85 1057.09,1467.11 1003.92,1469.1 966.626,1465.12 965.037,1389.45 980.51,1335.88 976.146,1315.96 1017.01,1331.1 1027.13,1320.15 997.967,1289.88 1070.97,1217.19 1149.92,1205.44 1214.19,1217.19 1347.9,1184.13 1428.24,1182.14 1448.68,1189.71 1456.02,1241.09 1475.06,1230.93 1519.69,1324.92 1501.44,1340.66 1462.56,1343.44 1469.31,1375.1 1486.77,1392.23 1505.81,1377.9 1544.49,1425.89 1567.9,1418.32 1590.51,1368.14 1586.15,1324.33 1548.86,1329.7 1547.46,1284.5 1579.6,1257.02 1599.24,1261 1632.77,1296.84 1678.2,1297.44 1700.01,1319.55 1696.45,1330.5 1670.06,1350.41 1666.49,1377.09 1681.77,1349.02 1700.81,1341.45 1708.15,1314.57 1686.92,1265.98 1666.49,1223.36 1667.28,1194.49 1690.49,1137.53 1707.35,1084.56 1734.33,1056.48 1759.33,1048.92 1808.13,1094.32 1879.15,1096.31 1959.49,1070.82 2047.17,1073.62 2109.27,1171.19 "/>
   <polyline id="_140563552" class="str1" points="2109.27,1171.19 2145.77,1204.84 2165.41,1246.67 2234.04,1309.19 2317.36,1313.38 2283.04,1298.24 2238.4,1294.65 2185.24,1255.62 2163.22,1181.34 2131.88,1170.4 2095.38,1101.89 2047.77,1058.48 2000.36,1051.71 1949.97,1049.52 1924.38,1039.96 1900.97,1050.91 1865.26,1016.06 1834.52,946.559 1847.61,930.23 1895.81,943.175 1909.1,928.837 1874.59,860.728 1845.43,875.864 1828.56,853.163 1821.42,827.87 1833.13,798.201 1838.88,768.726 1867.45,767.333 1884.11,748.813 1887.88,720.738 1851.97,759.768 1839.67,759.165 1827.97,739.252 1808.13,754.388 1773.21,751.004 1762.9,764.746 1743.26,757.772 1716.87,728.9 1722.63,703.606 1760.72,694.648 1736.52,679.512 1748.22,660.992 1828.56,649.246 1856.33,653.427 1896.61,616.984 1910.49,614.191 1922.2,587.516 1902.36,563.415 1876.17,610.211 1847.61,615.591 1820.63,606.632 1827.17,592.287 1819.24,583.329 1863.67,554.457 1881.93,551.067 1865.26,535.937 1824.19,551.864 1810.31,539.516 1834.52,538.724 1869.63,526.376 1851.97,505.86 1822.81,505.86 1835.31,492.124 1822.81,461.852 1793.65,441.939 1792.06,420.035 1763.7,408.886 1771.63,391.76 1759.33,356.114 1748.22,354.72 1741.68,340.376 1726.4,320.463 1725.21,285.018 1696.45,284.622 1665.7,295.376 1632.57,315.691 1614.31,304.535 1605.39,288.402 1581.79,294.579 1578.01,349.937 1576.63,397.73 1567.5,391.157 1574.05,274.659 1598.44,210.537 1627.02,148.411 1658.76,157.37 1628.21,157.967 1628.21,166.53 1640.5,168.726 1647.84,182.061 1618.29,195.402 1606.98,221.096 1610.16,272.079 1637.53,287.805 1667.48,290.598 1695.06,282.035 1728.58,278.244 1740.28,277.057 1742.07,262.116 1766.87,263.516 1788.09,275.858 1834.71,266.102 1845.82,273.667 1898.39,265.506 1937.08,292.984 1988.26,291.591 2030.51,312.1 2032.09,338.386 2075.14,343.169 2108.67,314.888 2116.8,326.439 2112.04,329.031 2124.54,348.543 2132.87,334.211 2150.72,333.213 2157.27,320.268 2183.46,302.545 2200.91,290.598 2204.29,292.388 "/>
   <polyline id="_140565592" class="str1" points="2204.29,292.388 2206.87,293.781 2193.77,306.526 2198.73,325.441 2291.17,352.524 2298.91,368.457 2328.27,386.38 2344.54,367.459 2341.76,351.531 2367.94,364.878 2381.04,382.795 2383.22,411.472 2406.63,434.374 2405.44,445.128 2398.49,434.97 2372.91,445.724 2404.45,456.874 2408.22,451.299 2402.86,504.467 2402.86,546.484 2378.26,578.15 2326.68,604.24 2318.35,604.24 2317.36,613.996 2332.04,623.161 2374.49,607.825 2449.08,591.1 2484.99,620.173 2473.09,634.506 2482.2,654.419 2479.63,667.169 2469.71,670.358 2457.21,693.856 2466.54,708.189 2455.03,726.709 2473.48,715.358 2473.48,689.274 2482.2,687.679 2488.75,664.778 2500.85,647.256 2522.48,644.268 2535.57,631.524 2566.71,633.909 2620.48,667.169 2693.48,695.846 2704.39,716.953 2713.71,718.346 2723.43,732.283 2743.67,729.697 2762.71,731.291 2811.71,687.283 2822.62,686.285 2835.12,671.35 2885.7,682.104 2908.52,671.35 2916.25,662.587 2930.93,665.776 2926.97,682.104 2906.93,694.848 2895.02,692.858 2896.61,701.02 2903.56,702.614 2903.56,736.27 2910.11,758.77 2907.53,788.043 2915.66,816.72 2901.97,817.719 2885.11,836.634 2848.21,857.545 2806.16,902.15 2780.56,898.967 2780.17,892.996 2770.85,893.988 2771.44,905.734 2750.21,927.242 2756.16,958.907 2774.01,972.65 2804.57,969.065 2814.89,982.004 2811.71,998.734 2823.61,999.13 2885.7,960.898 2917.84,956.315 2957.52,956.315 2965.65,974.835 2978.75,981.012 2991.24,975.833 2990.25,984.992 2984.3,988.577 2985.88,1009.49 3009.3,1017.65 3028.33,993.756 3035.87,1010.68 3060.47,1014.27 3062.66,1028 3081.11,1034.18 3093.6,1016.26 3094.79,992.764 3108.87,956.911 3120.77,952.736 3110.07,941.581 3118.6,937.4 3127.32,946.559 3143.2,936.402 3144.78,916.488 3165.02,908.722 3160.06,892.394 3150.73,895.382 3119.78,933.413 3109.47,937.4 3111.66,921.071 3133.87,890.404 3155.69,885.224 3191.6,846.396 3231.47,848.976 3284.24,854.953 3348.51,831.455 3386.6,827.87 3400.09,825.88 3412.59,815.126 "/>
   <polyline id="_140564328" class="str1" points="3412.59,815.126 3436.59,778.287 3484.59,754.789 3506.82,733.281 3523.08,703.01 3543.32,670.358 3562.36,651.833 3571.09,628.931 3582.99,597.667 3595.09,595.081 3595.09,603.839 3617.91,618.183 3665.72,626.344 3766.49,626.344 3790.49,625.742 3783.94,631.524 3784.94,641.681 3761.33,651.236 3743.68,642.673 3725.63,656.014 3716.89,645.266 3686.55,656.616 3683.17,653.026 3681.58,647.256 3653.82,654.419 3640.12,642.673 3638.14,654.419 3620.09,654.419 3631,670.358 3605.4,671.947 3590.73,683.699 3577.04,674.339 3550.46,677.917 3545.5,711.177 3536.17,711.774 3528.04,729.094 3518.92,732.283 3520.1,738.26 3528.64,758.77 3519.91,763.553 3538.36,775.701 3542.33,771.715 3538.36,756.78 3548.28,739.459 3572.68,733.281 3571.09,713.368 3598.87,710.179 3606.99,681.106 3620.09,680.51 3621.68,693.449 3632.59,682.104 3656.59,671.947 3659.36,657.012 3683.17,653.026 3694.68,682.701 3704,674.929 3710.55,680.51 3712.13,665.179 3721.85,663.183 3723.44,676.925 3733.95,695.451 3750.81,694.848 3764.9,683.096 3764.3,669.36 3781.76,652.429 3812.71,640.683 3818.07,635.705 3822.83,629.734 3837.31,631.919 3837.11,632.917 3832.35,653.026 3841.48,671.752 3843.86,676.524 3861.71,674.339 3869.44,688.677 3858.54,699.431 3863.5,718.346 3882.93,727.707 3879.76,749.209 3896.03,761.959 3903.76,758.374 3925.59,775.299 3924.99,781.872 3953.16,782.469 3963.08,793.624 3978.75,826.476 3987.48,828.868 3980.54,839.226 3998.39,830.061 4015.85,827.474 4024.57,836.634 4006.12,847.394 4006.52,856.547 4017.44,849.384 4031.12,866.906 4034.1,875.864 4038.66,890.404 4064.25,903.148 4048.98,872.882 4066.44,867.904 4113.84,863.321 4154.71,833.646 4165.02,840.219 4153.12,849.384 4180.49,863.717 4202.52,890.799 4197.76,922.465 4176.93,943.571 4192.8,963.484 4218.39,975.833 4229.89,995.746 4228.11,1005.9 4240.61,1003.51 4257.07,1026.42 4255.48,1033.58 4232.07,1041.35 4227.12,1058.68 4212.44,1060.67 4208.07,1074.01 "/>
   <polyline id="_140564712" class="str1" points="4208.07,1074.01 4215.61,1086.35 4244.57,1091.93 4250.52,1117.02 4264.01,1118.02 4288.02,1140.52 4339.8,1159.44 4361.62,1166.61 4385.02,1163.02 4408.82,1147.69 4427.87,1152.87 4424.7,1175.77 4405.06,1188.71 4406.65,1196.28 4434.81,1195.88 4438.98,1242.88 4452.87,1260.01 4452.47,1331.1 4471.31,1349.62 4475.08,1384.67 4498.49,1504.95 4514.56,1520.08 4483.02,1566.68 4474.29,1596.94 4483.02,1609.3 4468.15,1681.98 4369.75,1749.89 4377.09,1821.18 4366.18,1830.54 4361.82,1853.04 4403.47,1860.81 4423.9,1886.89 4466.95,1911.99 4512.38,1967.55 4571.5,2009.17 4602.84,2050.19 4598.47,2064.73 4592.72,2096.99 4606.61,2115.11 4566.34,2158.32 4559,2187 4564.95,2204.32 4576.65,2268.44 4625.46,2288.56 4643.91,2314.45 4628.43,2343.32 4636.56,2360.65 4626.25,2377.18 4626.25,2403.06 4662.74,2439.9 4642.32,2488.69 4641.53,2532.7 4627.83,2569.34 4591.93,2605.39 4584.59,2635.06 4608.79,2646.41 4615.33,2695.4 4654.81,2735.82 4664.33,2788.99 4641.53,2822.85 4650.45,2850.93 4722.66,2882 4756.38,2895.54 4767.29,2994.9 4795.86,3028.75 4783.36,3090.69 4773.84,3158.4 4730,3287.44 4694.89,3327.67 4694.29,3348.38 4680.4,3396.37 4590.54,3361.12 4609.39,3305.56 4565.55,3316.12 4581.81,3261.35 4516.74,3224.51 4501.27,3237.26 4442.95,3210.97 4427.47,3258.37 4457.43,3258.37 4448.11,3276.29 4490.36,3292.82 4487.39,3328.07 4445.92,3339.21 4424.7,3328.86 4413.59,3352.16 4323.13,3404.53 4299.72,3394.78 4252.91,3412.9 4250.13,3445.16 4236.24,3460.09 4183.47,3457.1 4160.26,3472.84 4135.27,3457.1 4117.81,3472.84 4079.13,3475.03 4081.31,3501.31 4040.44,3560.66 4005.33,3527.6 3965.86,3578.58 3943.84,3566.63 3908.92,3640.12 3883.33,3622.19 3870.83,3640.91 3840.09,3632.75 3835.72,3674.76 3799.22,3712.2 3739.31,3671.78 3703.61,3684.53 3680.99,3717.58 3664.92,3706.23 3592.51,3716.79 3567.72,3755.82 3518.72,3803.01 3505.62,3892.23 3487.38,3896.01 3459.6,3816.56 3444.13,3815.76 3429.65,3775.33 3401.08,3777.53 "/>
   <polyline id="_140565112" class="str1" points="3401.08,3777.53 3409.81,3808.19 3392.36,3831.49 3420.92,3838.26 3451.47,3890.04 3439.77,3921.5 3478.65,3971.09 3581.6,4033.42 3575.06,4060.5 3614.53,4081.41 3577.24,4146.73 3570.69,4183.36 3542.13,4202.89 3552.25,4238.93 3596.08,4257.05 3600.65,4293.69 3615.13,4308.03 3626.04,4358.21 3653.22,4367.37 3664.92,4445.23 3686.75,4453.6 3720.47,4512.94 3767.08,4511.35 3810.33,4519.72 3840.88,4566.11 3898.61,4636.01 3917.65,4680.22 3956.33,4680.22 4013.27,4734.19 4018.43,4781.59 4060.88,4824 4062.27,4797.51 4099.56,4794.32 4143.4,4867.01 4173.36,4865.42 4220.77,4955.43 4209.06,4987.29 4215.61,5068.74 4168.2,5154.57 4109.68,5109.37 4097.38,5119.52 4068.22,5087.46 4059.29,5113.15 4033.7,5117.13 4036.68,5149.99 4022.19,5256.93 3941.65,5325.03 3908.13,5319.45 3829.97,5348.53 3803.59,5389.15 3764.9,5389.15 3702.81,5478.97 3751.02,5523.57 3760.54,5569.58 3785.33,5579.73 3824.81,5664.17 3773.04,5753.38 3811.72,5768.91 3827.79,5756.37 3849.61,5768.91 3871.63,5822.88 3846.04,5864.3 3846.04,5930.02 3824.81,5956.5 3715.9,5866.69 3734.16,5835.43 3712.33,5816.71 3716.7,5793.21 3633.38,5789.23 3618.11,5822.08 3579.42,5828.26 3556.81,5776.68 3460.99,5790.02 3468.33,5742.43 3421.51,5771.3 3444.93,5843.99 3287.21,5842.4 3268.97,5861.91 3157.87,5858.93 3149.15,5910.5 3075.35,5915.08 3051.15,5940.18 3073.17,5965.87 3028.54,5960.49 3006.51,6001.91 2976.56,6001.91 2989.85,5976.02 2956.13,5976.02 2921.81,6005.69 2850.19,6004.9 2859.12,5981.59 2834.92,5940.97 2801.99,5936.19 2825.4,5913.49 2815.28,5897.16 2764.1,5909.71 2672.65,5872.07 2664.71,5897.16 2633.37,5897.16 2612.14,5883.02 2623.85,5857.33 2593.1,5860.32 2605.59,5883.02 2597.47,5926.83 2612.14,5936.99 2617.9,5970.64 2555.21,6068.22 2502.44,6092.52 2473.28,6099.48 2473.28,6079.97 2496.69,6070.61 2484.99,6054.28 2504.03,6015.05 2481.41,6008.88 2434.6,6033.97 2422.9,5990.16 2440.35,5981.59 2435.39,5964.27 2411.19,5934.6 "/>
   <polyline id="_140581888" class="str1" points="2411.19,5934.6 2392.15,5940.18 2375.48,5897.16 2336.6,5890.19 2328.67,5900.34 2302.29,5887 2309.62,5860.32 2284.03,5847.97 2263,5890.59 2256.06,5883.81 2204.88,5868.89 2196.94,5864.5 2168.38,5848.57 2152.31,5809.54 2124.54,5807.94 2105.49,5796.99 2074.95,5802.57 2022.97,5757.17 2019.4,5740.84 1938.27,5686.07 1927.35,5687.66 1930.13,5707.98 1995.19,5744.62 2001.15,5768.12 2017.22,5784.45 2012.06,5797.79 1993.81,5794.61 1994.4,5802.17 1975.76,5796.4 1972.58,5783.06 1941.24,5777.47 1937.47,5768.91 1942.62,5765.73 1968.22,5775.09 1949.97,5760.35 1906.13,5739.24 1920.02,5754.77 1884.9,5745.41 1884.11,5754.77 1920.61,5773.49 1873.19,5805.56 1876.17,5808.15 1872.01,5810.34 1861.69,5807.75 1852.97,5805.76 1851.97,5793.61 1850.19,5772.9 1848.6,5771.5 1816.46,5744.82 1801.78,5765.93 1814.28,5768.12 1817.26,5794 1813.88,5792.21 1792.46,5780.66 1765.09,5784.05 1749.22,5786.24 1758.14,5761.15 1785.91,5772.9 1774.8,5745.41 1789.48,5733.07 1779.96,5723.71 1769.84,5730.68 1747.03,5697.82 1738.3,5734.66 1730.37,5696.23 1708.35,5693.84 1708.35,5710.37 1672.64,5714.15 1628.81,5768.91 1630.19,5797.79 1683.55,5815.91 1687.91,5798.59 1725.21,5794 1737.51,5808.74 1722.24,5821.29 1723.03,5844.79 1708.35,5851.75 1698.24,5825.27 1652.8,5847.97 1671.84,5861.11 1649.23,5872.87 1587.14,5869.08 1579.8,5842.4 1535.96,5831.44 1480.41,5877.64 1414.75,5876.85 1410.98,5892.38 1392.73,5888.6 1392.14,5858.93 1352.66,5858.13 1340.96,5880.04 1285.41,5903.33 1262.8,5880.04 1284.61,5876.06 1291.96,5843.99 1276.68,5851.75 1267.16,5851.75 1255.46,5865.9 1243.75,5863.51 1231.26,5826.87 1205.07,5800.97 1202.89,5767.32 1221.73,5754.97 1212.41,5716.54 1224.71,5645.44 1237.2,5597.85 1257.64,5567.39 1230.66,5521.19 1235.03,5450.89 1280.26,5371.23 1287.59,5309.3 1313.78,5300.74 1308.03,5249.16 1321.12,5172.69 1340.96,5156.96 1343.73,5094.43 1359.21,5055.4 1417.53,4994.46 1419.71,4959.22 "/>
   <polyline id="_140571232" class="str1" points="1419.71,4959.22 1442.52,4963.2 1445.3,4938.9 1471.69,4938.9 1489.15,4891.31 1529.41,4810.66 1546.28,4794.32 1473.08,4777.8 1408.2,4732 1367.14,4749.92 1338.77,4725.22 1323.3,4737.97 1260.61,4734.99 1260.61,4717.66 1218.96,4710.89 1191.78,4649.35 1142.19,4642.58 1096.95,4681.61 1030.5,4681.61 1004.12,4656.92 985.866,4695.95 972.774,4639.6 927.343,4610.32 909.886,4617.09 885.089,4611.12 886.476,4659.11 860.888,4649.35 829.547,4650.94 821.409,4634.42 835.299,4613.51 810.502,4612.71 806.929,4588.61 750.591,4509.96 765.868,4494.82 738.892,4469.33 747.018,4454.99 685.524,4417.55 657.159,4425.92 649.819,4373.35 665.888,4359.81 654.183,4340.29 690.685,4285.53 681.159,4275.77 719.846,4242.71 731.545,4163.26 684.136,4161.66 653.392,4130.99 640.299,4148.12 632.161,4125.02 595.659,4098.73 586.14,4061.89 569.48,4049.94 554.008,4024.45 537.939,3974.07 543.886,3919.31 554.799,3914.13 549.047,3887.85 573.053,3882.47 562.134,3848.81 583.364,3820.33 612.526,3817.35 635.935,3770.75 649.819,3785.69 678.98,3768.56 647.634,3730.92 661.518,3672.38 643.866,3670.19 647.634,3643.3 615.502,3633.55 589.913,3642.51 566.504,3594.51 611.132,3539.75 571.659,3537.36 536.551,3463.08 497.864,3466.07 491.911,3423.25 462.75,3392.59 490.524,3396.37 486.159,3366.3 517.506,3368.49 520.482,3310.14 489.13,3300.99 494.888,3260.56 459.774,3260.56 429.821,3271.11 436.364,3253.79 417.915,3211.57 "/>
   <polyline id="_140586648" class="str1" points="3769.26,1079.19 3777.99,1084.36 3773.63,1108.85 3763.71,1115.03 3759.35,1137.53 3725.63,1143.71 3734.35,1123.2 3737.73,1107.86 3769.26,1079.19 "/>
   <polyline id="_140587880" class="str1" points="2925.97,5486.73 2931.73,5491.51 2929.54,5503.86 2933.31,5543.09 2947.8,5550.06 2930.34,5589.89 2917.25,5568.78 2913.47,5499.28 2925.97,5486.73 "/>
   <polyline id="_140590696" class="str1" points="3030.52,5548.47 3039.84,5554.05 3025.36,5594.67 3028.93,5663.37 3026.75,5682.89 3007.71,5668.95 3012.27,5647.04 2997.59,5628.92 3030.52,5548.47 "/>
   <polyline id="_140589216" class="str1" points="3568.12,5593.87 3601.05,5629.72 3593.7,5645.44 3574.66,5649.24 3567.32,5665.76 3521.3,5665.76 3519.91,5643.86 3534.59,5639.87 3527.25,5654.81 3541.13,5654.81 3538.16,5639.87 3568.12,5593.87 "/>
   <polyline id="_140590208" class="str1" points="3099.56,1138.93 3099.56,1153.87 3108.87,1164.61 3098.56,1188.71 3095.19,1240.89 3108.28,1253.63 3107.29,1268.96 3081.7,1264.38 3074.56,1250.65 3073.56,1220.37 3078.92,1197.28 3069.6,1178.96 3080.11,1153.27 3099.56,1138.93 "/>
   <polyline id="_140594160" class="str1" points="3715.31,1400.99 3714.31,1432.66 3678.81,1460.94 3676.62,1448.59 3669.09,1418.92 3646.67,1426.09 3643.49,1400 3620.09,1400.4 3634.77,1381.09 3660.95,1331.49 3672.86,1332.49 3673.45,1343.24 3658.18,1345.23 3658.18,1359.57 3694.08,1385.07 3715.31,1400.99 "/>
   <polyline id="_140592112" class="str1" points="870.213,1269.96 840.26,1275.54 822.006,1280.91 844.624,1295.45 840.26,1303.02 826.376,1294.06 824.787,1303.02 795.626,1284.5 794.238,1269.36 793.441,1269.36 808.122,1270.75 840.856,1253.63 870.213,1269.96 "/>
   <polyline id="_140593496" class="str1" points="900.171,1269.96 891.242,1278.92 887.669,1271.36 900.171,1269.96 "/>
   <polyline id="_140596000" class="str1" points="903.738,1253.63 890.646,1236.31 912.467,1230.93 918.419,1234.91 903.738,1253.63 "/>
   <polyline id="_140597064" class="str1" points="1006.69,1211.02 986.268,1211.61 944.008,1220.58 894.219,1221.17 893.622,1215.8 952.742,1207.63 1006.1,1201.26 1006.69,1211.02 "/>
   <polyline id="_140554008" class="str1" points="1122.94,1182.74 1088.63,1191.1 1033.87,1198.67 1021.38,1190.31 1048.35,1176.56 1123.74,1175.96 1122.94,1182.74 "/>
   <polyline id="_140599568" class="str1" points="1129.49,1175.96 1144.77,1167.8 1168.17,1171.19 1163.81,1182.14 1129.49,1175.96 "/>
   <polyline id="_140600816" class="str1" points="1179.87,1176.56 1176.9,1164.22 1189.4,1150.48 1252.88,1149.88 1260.22,1158.84 1202.49,1162.82 1198.92,1175.96 1179.87,1176.56 "/>
   <polyline id="_140603376" class="str1" points="1280.65,1156.65 1277.08,1146.5 1285.81,1131.96 1324.49,1131.96 1353.05,1139.53 1336.19,1141.72 1319.53,1149.88 1292.36,1149.88 1280.65,1156.65 "/>
   <polyline id="_140604680" class="str1" points="1374.28,1139.53 1361,1127.98 1364.76,1122.4 1399.88,1123 1423.28,1138.93 1387.38,1132.76 1374.88,1127.98 1374.28,1139.53 "/>
   <polyline id="_140606472" class="str1" points="1434.79,1144.31 1438.56,1133.35 1443.71,1135.34 1442.92,1145.1 1434.79,1144.31 "/>
   <polyline id="_140607496" class="str1" points="1437.77,1158.05 1437.77,1149.08 1449.47,1154.06 1449.47,1162.23 1437.77,1158.05 "/>
   <polyline id="_140597968" class="str1" points="1489.74,1183.54 1499.26,1172.58 1525.45,1169 1529.81,1175.96 1511.56,1175.96 1510.77,1188.92 1489.74,1183.54 "/>
   <polyline id="_140615144" class="str1" points="1404.83,829.27 1377.86,829.27 1373.49,822.301 1398.29,820.305 1404.83,829.27 "/>
   <polyline id="_140609096" class="str1" points="1635.74,1009.09 1636.54,1002.92 1646.06,991.169 1651.22,996.148 1646.66,1007.69 1635.74,1009.09 "/>
   <polyline id="_140614064" class="str1" points="1667.28,1033.19 1669.46,1018.65 1676.01,1018.65 1685.53,1028.41 1682.56,1034.57 1667.28,1033.19 "/>
   <polyline id="_140613408" class="str1" points="1768.65,935.61 1759.33,930.827 1754.76,920.474 1766.47,905.339 1768.65,912.307 1765.09,919.081 1768.65,935.61 "/>
   <polyline id="_140616808" class="str1" points="1704.18,607.028 1704.18,614.598 1694.66,614.598 1694.66,607.028 1704.18,607.028 "/>
   <polyline id="_140617880" class="str1" points="1776.39,535.736 1760.32,584.327 1736.91,592.689 1716.48,575.569 1715.69,555.65 1736.31,553.459 1756.75,538.323 1776.39,535.736 "/>
   <polyline id="_140622352" class="str1" points="1777.19,607.825 1785.12,605.634 1786.7,611.805 1779.37,612.602 1777.19,607.825 "/>
   <polyline id="_140623088" class="str1" points="1673.43,554.852 1667.48,589.305 1655.19,575.569 1655.19,545.297 1663.12,556.843 1673.43,554.852 "/>
   <polyline id="_140619616" class="str1" points="1605.79,415.459 1609.16,420.035 1601.03,426.407 1598.44,441.939 1605.19,449.114 1618.29,482.167 1628.81,483.165 1628.4,496.902 1605.19,499.293 1570.68,453.886 1605.79,415.459 "/>
   <polyline id="_140626000" class="str1" points="1709.14,442.937 1660.34,443.333 1651.41,434.374 1630.58,430.594 1624.04,422.622 1627.02,401.717 1652.6,387.774 1706.56,385.984 1719.85,414.065 1711.32,426.207 1709.14,442.937 "/>
   <polyline id="_140624944" class="str1" points="1755.96,457.476 1742.07,477.986 1716.48,480.774 1697.44,492.319 1687.32,484.157 1691.69,475.199 1709.94,475.996 1755.96,457.476 "/>
   <polyline id="_140631880" class="str1" points="1778.57,448.512 1760.32,449.906 1777.19,434.77 1778.57,448.512 "/>
   <polyline id="_140629784" class="str1" points="1791.07,479.38 1779.37,484.157 1773.41,475.996 1786.7,469.819 1791.07,479.38 "/>
   <polyline id="_140630600" class="str1" points="1714.3,536.333 1698.24,541.913 1679.98,521.994 1693.07,525.384 1701.8,519.207 1714.3,536.333 "/>
   <polyline id="_140633824" class="str1" points="1659.55,521.197 1657.36,537.726 1647.05,535.736 1654.39,518.409 1659.55,521.197 "/>
   <polyline id="_140633648" class="str1" points="2876.98,627.537 2890.27,636.502 2866.66,626.545 2872.61,589.701 2884.12,568.795 2898.8,553.86 2925.38,562.028 2953.75,570.384 2980.33,580.541 2985.29,596.474 2989.65,607.63 3012.47,640.878 3015.83,658.406 2990.25,655.222 2956.52,645.461 2946.21,649.045 2953.75,657.809 2924.39,658.406 2913.47,653.628 2912.88,627.142 2893.84,619.972 2876.98,627.537 "/>
   <polyline id="_140681840" class="str1" points="3942.05,537.13 3939.27,521.598 3956.73,487.341 3959.51,471.018 3948.01,471.018 3930.15,486.348 3935.11,505.27 3900.19,542.108 3898.61,530.362 3924.6,507.455 3926.38,487.943 3925.78,472.01 3949.79,447.52 3976.37,446.917 3994.42,439.748 4031.32,439.352 4026.96,461.256 4006.32,465.437 4001.37,484.76 4010.69,508.453 4024.77,525.78 4051.55,531.354 4092.81,519.207 4129.32,517.016 4150.54,538.524 4148.36,556.447 4132.69,571.778 4109.68,587.711 4098.37,610.211 4101.15,631.122 4104.92,647.055 4119.01,660.396 4139.24,656.817 4151.14,670.157 4167.01,695.043 4190.42,706.4 4176.14,710.982 4163.04,739.057 4169.19,759.165 4160.86,762.154 4148.96,752.002 4149.55,746.823 4157.69,752.398 4157.69,740.25 4132.69,747.419 4128.32,738.065 4157.09,719.144 4143,715.157 4113.05,723.526 4142.41,709.388 4146.18,700.825 4129.91,698.628 4116.82,715.157 4098.97,698.232 4088.06,705.402 4064.65,705.803 4047.79,714.561 4044.41,723.72 4024.77,733.081 4006.92,760.565 4005.33,753.396 3990.45,760.163 3991.05,772.311 3997,766.341 4001.37,771.915 4010.09,762.75 4020.02,769.925 4028.14,783.065 4013.86,791.427 4009.5,798.602 3998.79,792.425 3976.57,781.872 3974.19,767.728 3982.92,755.982 3970.42,762.154 3970.42,769.323 3963.28,767.728 3947.01,775.5 3924.19,755.587 3917.06,757.577 3915.87,741.248 3907.33,745.228 3895.83,755.982 3890.87,752.002 3886.11,740.646 3894.64,734.073 3908.33,738.656 3907.73,731.888 3889.28,727.907 3887.1,718.146 3874.61,711.974 3879.96,684.892 3883.93,680.906 3913.29,680.315 3924.6,682.902 3947.61,674.734 3937.68,673.742 3932.93,658.807 3942.05,657.213 3930.15,651.236 3922.41,638.888 3894.24,645.065 3899.01,628.14 3908.92,619.37 3916.46,620.965 3948.6,601.453 3944.23,592.287 3930.15,594.88 3932.93,575.362 3912.69,581.138 3896.82,573.974 3899.01,556.045 3893.06,553.86 3888.29,547.884 3918.64,544.695 3938.88,535.535 3942.05,537.13 "/>
   <polyline id="_140681456" class="str1" points="3942.05,537.13 3980.73,519.602 3981.33,509.445 3996.01,493.122 4005.73,525.78 4026.96,529.364 4040.05,547.884 4062.47,546.685 4066.23,563.61 4065.64,580.541 4062.47,588.703 4066.23,604.039 4074.96,596.87 4085.28,602.049 4081.51,617.982 4072.19,624.951 4081.91,629.132 4078.73,645.065 4049.37,643.47 4046.59,631.724 4059.69,634.305 4062.47,613.199 4045.01,618.378 4053.74,598.465 4047.79,595.878 4032.51,604.642 4030.33,590.693 4018.82,587.108 4018.82,562.618 4013.47,548.882 4003.15,530.953 3993.83,540.715 4005.73,558.035 3999.18,566.203 3987.87,566.799 3994.82,548.28 3988.87,542.108 3999.78,521.598 3992.83,521.398 3987.28,521.197 3964.47,539.12 3967.64,560.628 3968.63,565.807 3969.82,571.778 3959.51,566.799 3958.91,552.467 3942.05,537.13 "/>
   <polyline id="_140685624" class="str1" points="3928.16,594.88 3931.54,604.642 3916.26,608.421 3900.99,621.567 3881.35,628.335 3878.37,620.764 3892.26,593.091 3906.74,585.921 3915.67,587.108 3915.67,593.285 3928.16,594.88 "/>
   <polyline id="_140687160" class="str1" points="3851.39,613.795 3851.99,588.112 3867.86,538.122 3870.04,510.443 3877.58,500.291 3891.27,500.687 3894.44,512.433 3898.21,524.185 3885.12,516.018 3876.59,517.612 3876.59,553.459 3857.34,586.116 3857.34,611.209 3851.39,613.795 "/>
   <polyline id="_140689952" class="str1" points="3814.89,633.715 3805.77,630.726 3813.9,629.132 3822.63,622.961 3838.9,622.559 3846.04,612.803 3849.8,621.567 3842.67,627.537 3822.83,629.734 3814.89,633.715 "/>
   <polyline id="_140691448" class="str1" points="4180.49,863.717 4180.3,841.813 4197.76,831.059 4210.85,832.051 4215.61,857.144 4231.48,884.628 4263.02,908.327 4288.61,911.309 4307.06,929.829 4383.24,1000.92 4405.85,1020.44 4394.75,1032.39 4401.88,1068.04 4394.75,1064.85 4338.21,1064.85 4313.01,1062.26 4293.97,1082.17 4265.8,1084.36 4245.57,1088.34 4216.8,1079.19 4214.02,1066.84 4252.11,1056.68 4267.39,1040.75 4262.43,1005.5 4248.34,996.348 4254.3,973.837 4284.25,973.246 4278.3,998.734 4277.7,1016.26 4283.65,1000.33 4296.75,995.15 4315.79,1015.26 4320.15,983.002 4314.8,951.738 4300.51,957.909 4297.93,935.409 4283.26,921.467 4258.06,920.474 4263.02,953.327 4257.67,965.079 4241.2,960.898 4229.3,969.065 4227.71,957.909 4237.43,936.402 4229.3,930.827 4206.48,952.736 4189.43,950.746 4185.66,942.579 4197.76,922.465 4205.89,913.305 4209.06,885.821 4199.94,881.037 4180.49,863.717 "/>
   <polyline id="_141298688" class="str1" points="1765.09,5784.05 1792.46,5780.66 1817.26,5794 1814.28,5768.12 1801.19,5765.73 1816.46,5744.82 1850.19,5772.9 1852.97,5805.76 1872.01,5810.34 1876.17,5808.15 "/>
   <polyline id="_141298544" class="str1" points="3151.72,1692.73 3139.62,1692.93 3131.69,1680.58 3109.07,1683.77 3087.05,1661.07 3056.11,1664.86 3037.06,1679.19 2994.22,1646.34 2994.61,1629.81 2976.36,1612.68 2951.17,1619.85 2948.98,1599.93 2966.24,1586.99 2902.96,1557.32 2869.44,1506.14 2864.28,1476.27 2830.55,1461.53 2797.03,1486.03 2769.66,1484.24 2722.44,1442.02 2677.21,1440.03 2665.91,1449.19 2606.79,1432.06 2564.34,1399.4 2543.11,1399.8 2538.35,1391.83 2516.92,1406.57 2478.05,1421.11 2415.35,1377.09 2375.08,1416.93 2368.54,1399.8 2345.92,1411.55 2344.33,1375.1 2321.73,1392.83 2295.54,1367.55 2278.68,1320.74 2282.25,1301.63 2257.45,1301.63 2281.65,1248.06 2304.27,1281.71 2356.05,1228.74 2383.22,1230.13 2399.88,1207.63 2424.88,1209.62 2428.45,1178.76 2443.13,1184.13 2473.09,1169 2486.97,1175.96 2455.43,1211.02 2485.38,1228.14 2481.81,1243.28 2495.7,1247.46 2483.2,1261 2483.2,1288.48 2465.74,1285.1 2469.31,1335.28 2491.33,1330.5 2527.05,1375.1 2538.35,1391.83 "/>
   <polyline id="_141303104" class="str1" points="2257.45,1301.63 2233.85,1300.83 2186.63,1266.97 2167.58,1241.09 2158.06,1191.3 2133.27,1180.15 2109.46,1155.66 2085.86,1105.47 2052.93,1071.62 2017.42,1058.88 1934.89,1058.27 1908.7,1063.65 "/>
   <polyline id="_141302960" class="str1" points="2677.21,1440.03 2687.13,1427.68 2690.7,1379.49 2722.84,1377.5 2724.43,1362.37 2749.22,1358.98 2767.48,1336.87 2784.34,1332.89 2784.34,1287.48 2804.77,1297.84 2827.97,1286.89 2834.72,1250.44 2844.84,1230.53 2826.58,1192.1 2787.11,1189.31 2774.01,1162.62 2750.61,1157.85 2758.74,1118.02 2746.25,1082.97 2763.11,1060.27 2795.84,1039.55 2811.31,1024.62 2821.44,1043.14 2855.75,1036.97 2816.47,1018.45 2823.61,999.13 "/>
   <polyline id="_141307568" class="str1" points="2994.61,1629.81 3056.11,1636.97 3054.52,1616.46 3086.66,1617.06 3116.62,1632.99 3136.45,1616.46 3129.11,1608.1 3139.22,1596.55 3131.29,1561.5 3149.55,1558.12 3169.98,1540.99 3204.3,1537.41 3215.2,1560.11 3240.2,1547.76 3265.59,1553.34 3245.95,1532.62 3279.48,1535.42 3297.13,1514.91 3321.93,1516.1 3333.63,1494.99 3352.68,1494.99 3354.86,1466.11 3367.16,1459.94 3364.98,1436.44 3381.84,1440.03 3384.81,1463.33 3418.34,1451.57 3424.29,1468.1 3436,1455.76 3453.45,1454.36 3473.09,1482.44 3494.32,1475.68 3529.43,1498.38 3533,1512.71 3544.71,1512.11 3558.59,1535.42 3595.09,1521.08 3631.8,1538.2 3663.14,1525.85 3666.11,1551.94 3705.39,1552.54 3704,1575.24 3717.89,1578.63 3749.23,1571.06 3766.88,1586.2 3778.59,1574.65 3813.7,1570.46 3799.02,1589.58 3812.91,1601.33 3847.23,1568.27 3862.51,1569.07 3873.61,1540.99 3910.71,1534.02 3915.08,1555.93 3932.73,1558.71 3943.64,1525.06 3964.07,1513.51 3991.05,1512.71 4007.91,1539.59 4028.34,1509.33 4030.53,1496.19 4054.73,1506.54 4060.48,1479.86 4068.61,1479.06 4069.41,1448.19 4088.26,1443.41 4083.89,1422.11 4120.39,1411.15 4125.54,1386.46 4165.02,1356.79 4202.32,1365.15 4211.84,1346.63 4186.85,1332.09 4196.37,1299.83 4214.62,1333.48 4244.57,1343.24 4239.61,1369.93 4259.26,1378.09 4253.5,1402.19 4321.35,1398.01 4327.3,1412.55 4338.8,1413.15 4360.03,1391.24 4396.53,1406.37 4408.23,1392.63 4414.78,1433.06 4343.36,1516.9 4345.55,1527.85 4392.96,1524.47 4422.12,1531.23 4427.28,1510.72 4445.53,1507.33 4449.89,1485.23 4475.48,1486.03 4491.15,1467.31 "/>
   <polyline id="_141306064" class="str1" points="3844.25,2760.52 3900.19,2730.25 3898.02,2712.32 3911.5,2704.36 3895.44,2686.05 3893.65,2665.93 3899.79,2638.45 3882.93,2612.56 3894.05,2589.26 3880.16,2582.09 3847.62,2593.25 3834.14,2589.45 3844.25,2567.16 3806.76,2563.18 3808.55,2551.42 3783.94,2538.08 3756.57,2544.85 3748.24,2517.17 3715.71,2521.15 3703.21,2502.44 3655.8,2483.72 3631.99,2508.21 3602.43,2504.62 3566.33,2465 3555.81,2481.12 3500.86,2443.09 3491.14,2419.99 3473.89,2412.02 3449.49,2358.45 3464.37,2349.1 3463.57,2331.37 3488.56,2317.03 3460.8,2299.71 3474.28,2256.89 3489.16,2227.62 3478.25,2213.68 3488.56,2181.22 3473.49,2175.05 3477.26,2152.55 3500.27,2145.18 3494.72,2122.68 3505.03,2109.34 3473.09,2117.5 3463.97,2086.63 3447.31,2111.13 3426.87,2104.95 3433.42,2081.26 3411.4,2087.23 3429.05,2048.4 3429.05,2016.73 3429.25,2007.38 3459.01,2004.19 3455.63,1959.78 3437.78,1937.08 3450.87,1915.18 3442.54,1910.79 3451.27,1885.69 3466.54,1877.73 3453.45,1827.75 3436.59,1818.99 3405.25,1836.71 3401.28,1801.46 3393.15,1817.99 3357.64,1801.06 3329.27,1817.99 3317.17,1806.04 3294.15,1805.05 3284.63,1788.12 3258.45,1792.5 3277.1,1760.04 3241.19,1750.69 3227.7,1726.59 3196.56,1739.53 3192.19,1712.85 3166.41,1714.64 3173.55,1689.54 3151.72,1692.73 3130.1,1727.98 3119.2,1710.06 3107.09,1720.42 3106.49,1766.22 3085.67,1771.2 3052.33,1801.06 3007.11,1818.79 3005.52,1803.86 2979.34,1816.6 2972,1800.07 2915.66,1802.86 2913.28,1787.33 2861.7,1791.31 2840.08,1836.31 2817.06,1833.53 2815.28,1841.69 2792.66,1837.11 2758.94,1844.68 2751.8,1893.67 2767.07,1916.37 2764.9,1944.05 2786.12,1941.86 2834.92,2027.49 2849.6,2010.96 2857.34,2025.69 2837.3,2041.63 2842.26,2077.67 2870.43,2112.92 2840.88,2112.92 2839.09,2145.18 2901.57,2209.3 2895.22,2225.83 2863.48,2232.01 2886.89,2257.3 2870.83,2272.03 2908.72,2319.43 2875.98,2334.56 2875.19,2355.47 2895.22,2374.98 2857.34,2411.03 2836.51,2413.22 2853.37,2431.54 2850.99,2448.47 2805.76,2448.07 2792.66,2457.03 2702.81,2459.22 2689.71,2489.09 2658.96,2485.1 2686.34,2521.15 2703.8,2525.14 2684.16,2539.07 2683.76,2555.01 2702.81,2566.95 2698.84,2584.48 2665.11,2611.56 2667.69,2664.54 2678.01,2675.88 2692.49,2678.87 2690.7,2701.97 2709.35,2714.52 2707.16,2741.2 2720.66,2765.7 "/>
   <polyline id="_141311496" class="str1" points="3479.84,3177.52 3451.27,3174.53 3457.02,3148.64 3434.41,3143.66 3448.3,3111.2 3427.87,3112.59 3441.75,3085.32 3417.54,3011.23 3436,2996.69 3429.25,2938.35 3434.41,2926.2 3415.36,2921.23 3416.95,2899.32 3443.14,2872.23 3431.44,2841.97 3465.96,2823.84 3525.86,2806.72 3547.68,2810.9 3552.84,2788 3600.25,2796.56 3631,2777.04 3650.64,2780.83 3677.82,2746.18 3708.37,2759.92 3750.02,2731.05 3764.7,2753.35 3789.5,2764.1 3820.84,2743.99 3831.16,2764.9 3844.25,2760.52 3865.48,2795.17 3879.37,2782.82 3897.62,2803.73 3889.68,2825.44 3914.48,2831.81 3921.02,2877.22 3907.93,2883.79 3920.23,2910.27 3906.34,2927.6 3917.25,2927.6 3925.39,2953.49 3940.66,2951.3 3950.98,2962.84 3956.73,2936.95 3979.55,2928.99 3972.8,2916.84 4004.34,2928.99 4011.68,2908.28 4026.16,2935.56 4049.57,2929.79 4078.73,2966.43 4098.57,2960.06 4110.87,2971.61 4192.8,2975.19 4227.92,2962.84 4241,2970.81 4282.66,2949.3 4294.37,2974.39 4324.32,2915.44 4318.36,2890.16 4333.05,2894.54 4351.3,2858.5 4374.71,2834.8 4428.07,2846.34 4451.48,2858.5 4456.44,2872.23 4498.1,2837.59 4544.91,2831.21 4571.89,2812.49 4586.57,2817.47 4586.57,2835.4 4629.62,2831.81 4633.39,2796.56 4648.86,2812.09 "/>
   <polyline id="_141311984" class="str1" points="988.843,2310.27 1011.45,2308.07 1016.62,2291.15 1103.5,2290.75 1111.23,2277.01 1133.46,2272.03 1141.79,2256.5 1163.81,2253.71 1177.3,2232.8 1213.41,2209.69 1230.27,2207.51 1249.31,2168.68 1230.86,2163.7 1244.55,2129.44 1292.36,2148.17 1301.08,2186.8 1348.3,2210.1 1385.79,2201.94 1412.17,2219.85 1412.17,2237.38 1430.82,2257.69 1402.26,2262.67 1413.17,2283.58 1400.47,2292.14 1400.07,2320.02 1387.57,2336.56 1401.47,2357.66 1447.48,2363.83 1438.36,2378.17 1444.31,2404.46 1419.12,2403.46 1381.03,2428.35 1402.65,2457.03 1427.85,2467.98 1451.26,2442.69 1490.34,2446.68 1507.8,2436.12 1527.23,2439.5 1552.42,2402.07 1571.86,2394.5 1602.02,2400.27 1628.01,2410.23 1629.4,2387.93 1653.6,2374.98 1663.91,2374.59 1680.97,2354.08 1646.26,2330.78 1657.56,2303.3 1658.36,2252.52 1645.27,2216.27 1583.37,2178.04 1581.19,2146.77 1640.11,2150.36 1653.2,2132.43 1656.57,2111.13 1680.58,2098.78 1704.38,2111.52 1745.65,2087.03 1766.08,2098.78 1776.79,2191.38 1850.78,2192.37 1892.04,2171.86 1940.25,2108.94 1966.63,2116.5 1974.77,2129.44 1958.3,2155.73 1972.19,2170.07 1970.2,2183.81 1945.01,2228.02 1924.97,2232.01 1900.18,2280.99 1892.44,2295.73 1950.96,2312.06 1930.13,2322.02 1937.47,2350.89 1908.11,2344.12 1921.41,2365.63 1921.01,2392.31 1942.62,2383.95 1990.84,2389.72 1981.71,2417.81 1998.37,2437.71 2003.53,2521.15 2029.12,2511.79 2042.21,2516.77 2048.16,2550.63 2077.33,2562.18 2071.57,2603.2 2129.1,2602.6 2115.21,2641.44 2126.33,2652.99 2093.4,2688.23 2098.55,2760.92 2127.71,2760.92 2069.98,2789.79 2088.24,2806.32 2042.21,2869.05 2009.29,2901.31 1954.54,2917.24 1956.12,2876.22 1915.85,2860.29 1861.89,2885.58 1891.05,2941.74 1878.56,2958.27 1839.08,2961.85 1804.75,2956.07 1739.89,2992.12 1701.8,3041.11 1727.39,3065.6 1779.96,3043.29 1794.64,3098.66 1756.55,3176.52 1702.59,3164.97 1671.05,3191.66 1690.1,3201.61 1675.42,3219.74 1692.08,3234.47 "/>
   <polyline id="_141312104" class="str1" points="3330.86,3233.68 3283.25,3207.79 3227.7,3215.75 3213.81,3198.43 3195.57,3198.43 3196.95,3177.52 3172.95,3162.38 3162.64,3172.54 3135.66,3157.41 3124.74,3173.14 3092.61,3173.93 3084.48,3140.68 3100.55,3122.75 3073.56,3088.9 3056.7,3093.88 3040.64,3073.77 3052.33,3063.01 3060.47,3070.97 3096.18,3025.58 3059.68,2985.94 3054.52,2957.07 3030.52,2955.67 3020.2,2938.35 2985.88,2948.5 2969.82,2934.77 2947.2,2947.71 2889.47,2926.2 2882.13,2940.54 2857.93,2935.56 2849.99,2884.38 2839.68,2845.55 2818.65,2831.21 2811.91,2805.93 2833.93,2803.73 2830.95,2783.62 2811.31,2789.4 2801.79,2776.45 2783.54,2777.85 2751.41,2756.93 2720.66,2765.7 2692.09,2780.83 2692.09,2806.72 2709.74,2808.11 2701.02,2831.21 2677.61,2810.3 2650.63,2835.4 2594.29,2803.13 2565.72,2805.93 2567.31,2836.99 2504.43,2895.93 2487.57,2882.99 2470.9,2895.93 2475.86,2903.9 2457.02,2922.62 2413.77,2919.03 2387.59,2947.11 2353.86,2973.8 "/>
   <polyline id="_141319648" class="str1" points="2491.73,3225.71 2451.86,3200.02 2475.86,3161.78 2450.27,3140.88 2480.22,3140.88 2487.57,3167.56 2498.68,3106.42 2423.29,3078.94 2412.38,3039.51 2369.93,3031.55 2353.86,2973.8 2348.11,2934.37 2320.33,2940.74 2325.49,2970.21 2304.27,2942.94 2247.93,2977.58 2265.58,3007.06 2283.04,2999.09 2261.22,3030.75 2174.92,2984.75 2188.02,2950.1 2217.97,2938.55 2211.43,2888.96 2192.39,2860.88 2214.4,2850.73 2199.73,2823.45 2224.72,2832.8 2210.83,2806.12 2245.75,2821.26 2210.04,2770.88 2181.47,2780.23 2169.17,2762.91 2150.92,2780.83 2142.79,2750.76 2127.71,2760.92 "/>
   <polyline id="_141319976" class="str1" points="1500.85,3487.97 1489.94,3513.47 1502.43,3538.16 1498.07,3553.88 1506.01,3561.45 1490.73,3607.85 1452.05,3590.73 1427.05,3635.73 1435.98,3672.38 1422.69,3706.23 1459.98,3727.94 1474.66,3766.97 1486.96,3770.75 1492.12,3808.19 1475.26,3821.73 1458.59,3808.19 1447.48,3827.71 1459.19,3844.23 1449.07,3853.99 1433.6,3842.84 1392.73,3861.56 1378.85,3887.85 1399.28,3911.14 1403.05,3953.16 1390.55,3938.03 1366.55,3924.69 1357.02,3959.14 1340.16,3953.16 1328.46,3974.87 1369.33,4011.71 1373.09,4040.19 1419.71,4037.2 1527.23,3990.6 1560.76,4003.35 1603.21,4061.89 1600.23,4115.86 1620.07,4131.6 1618.48,4154.29 1638.92,4195.52 1665.3,4197.71 1640.5,4235.14 1603.21,4246.5 1617.89,4304.24 1633.16,4328.94 1657.17,4329.74 1704.77,4385.3 1731.76,4369.56 1715.69,4317.79 1766.08,4308.03 1761.71,4351.44 1785.91,4381.51 1808.92,4393.26 1830.15,4382.11 1833.72,4403.82 1865.26,4393.26 1854.15,4424.92 1830.15,4416.56 1822.02,4473.51 1843.24,4476.7 1893.63,4427.91 1882.72,4417.36 1900.97,4389.47 1931.72,4403.01 1942.62,4377.53 1975.56,4388.88 1972.58,4375.34 1949.17,4357.22 1941.24,4343.87 1961.67,4344.47 1943.42,4312.22 1961.67,4282.94 1955.72,4253.66 1983.5,4225.19 1985.08,4213.24 1962.27,4200.49 1976.95,4174.21 1952.15,4169.63 1955.13,4138.17 1930.13,4138.96 1928.74,4072.85 1920.61,4030.83 1939.06,4019.68 1927.95,3988.22 1899.58,3981.44 1903.15,3958.14 1927.35,3933.45 1987.26,3925.08 1982.9,3952.97 2009.08,3909.35 2057.29,3910.15 2088.83,3919.11 2106.29,3954.36 2159.65,3943.8 2161.04,3906.37 2169.17,3891.43 2154.49,3880.08 2155.88,3838.85 2207.86,3849.41 2224.72,3835.87 2223.92,3811.77 2253.09,3801.22 2272.13,3778.12 2270.75,3741.28 2276.49,3687.31 2333.43,3717.18 2382.43,3679.75 2404.25,3647.49 2409.4,3620.4 "/>
   <polyline id="_141321280" class="str1" points="665.888,4359.81 719.646,4373.75 756.543,4370.16 763.884,4387.29 795.23,4360.4 811.695,4372.75 825.974,4354.03 839.864,4355.03 868.028,4329.93 879.933,4334.12 931.116,4298.07 983.091,4297.28 1023.95,4332.92 1036.65,4317.59 1063.43,4349.45 1086.44,4335.11 1089.62,4369.77 1110.05,4376.73 1091.8,4391.47 1107.27,4422.93 1075.14,4440.25 1100.72,4471.72 1103.11,4484.07 1148.14,4499.4 1144.57,4534.85 1136.83,4562.93 1105.68,4583.63 1099.54,4603.35 1107.67,4625.26 1126.91,4655.73 "/>
   <polyline id="_141322184" class="str1" points="1546.28,4794.32 1575.44,4771.82 1586.15,4730.6 1608.77,4694.95 1611.74,4640.2 1628.4,4610.92 1620.47,4602.76 1670.46,4551.97 1650.42,4529.47 1677.01,4495.81 1675.22,4478.89 1659.15,4495.42 1680.77,4445.83 1644.47,4437.27 1653.6,4418.75 1635.74,4394.46 1636.93,4368.96 1633.16,4328.94 "/>
   <polyline id="_141323240" class="str1" points="3401.08,3777.53 3382.63,3765.18 3362.79,3767.37 3333.63,3747.85 3338,3724.55 3308.05,3690.9 3257.66,3720.77 3245.16,3699.06 3162.64,3723.16 3148.75,3707.23 3115.82,3732.92 3110.07,3713.4 3094,3713.4 3094.79,3687.71 3080.11,3692.29 3067.02,3668.99 3076.54,3625.58 3037.06,3618.81 3001.95,3651.87 2982.31,3653.26 3003.34,3752.43 2987.27,3813.76 2966.24,3801.02 2947.2,3810.18 2931.13,3795.05 2939.86,3761.99 2915.06,3735.9 2890.27,3753.02 2861.7,3735.11 2863.09,3756.81 2834.72,3721.56 2774.81,3723.76 2733.75,3741.08 2731.56,3774.93 2795.84,3813.76 2796.63,3841.65 2740.49,3828.9 2735.94,3867.93 2702.41,3842.44 2676.02,3851.4 2671.06,3764.38 2656.38,3761.39 2646.86,3737.3 2627.22,3750.84 2607.38,3716.98 2576.83,3713.99 2580.41,3692.29 2541.72,3642.7 2499.27,3621 2489.16,3593.92 2457.61,3602.28 2446.7,3587.34 2409.4,3620.4 "/>
   <polyline id="_141329912" class="str1" points="1961.67,4344.47 2024.36,4340.49 2042.81,4314.21 2044.2,4299.07 2062.45,4282.74 2074.15,4290.11 2087.24,4278.15 2105.49,4292.5 2114.23,4278.96 2102.52,4266.81 2112.84,4249.68 2095.97,4221.21 2094.58,4249.68 2074.15,4236.94 2087.24,4220.41 2048.56,4223.4 2064.63,4209.86 2061.06,4196.31 2095.97,4186.55 2123.15,4179.79 2132.47,4193.33 2150.92,4181.37 2164.02,4202.29 2171.95,4195.52 2184.44,4212.04 2183.66,4184.36 2222.34,4184.36 2213.61,4254.86 2232.66,4256.46 2237.01,4229.37 2265.58,4254.06 2291.17,4225.58 2314.38,4254.06 2307.24,4284.14 2323.31,4296.88 2316.77,4329.93 2305.06,4355.42 2321.13,4362.99 2333.43,4333.72 2348.9,4334.52 2337.79,4357.02 2352.47,4358.41 2356.84,4381.71 2346.72,4408.8 2402.07,4410.99 2403.66,4396.65 2418.14,4389.28 2406.63,4374.94 2421.11,4363.59 2433.61,4370.36 2427.06,4387.68 2448.09,4388.48 2435,4410.19 2447.49,4419.94 2439.36,4442.45 2458.41,4450.02 2464.16,4483.07 2442.34,4486.06 2440.95,4524.3 2458.41,4535.44 2453.24,4554.96 2462.76,4563.32 2448.88,4575.27 2455.43,4626.25 2511.77,4669.07 2489.75,4700.53 2508,4704.32 2502.24,4718.65 2517.52,4719.45 2512.56,4740.36 2556.2,4756.89 "/>
   <polyline id="_141330400" class="str1" points="1692.08,3234.47 1656.57,3274.69 1654.98,3306.96 1614.12,3346.78 1587.14,3354.35 1564.52,3337.82 1499.46,3414.3 1515.53,3457.1 1500.85,3487.97 1483.39,3476.62 1462.16,3483.4 1451.26,3455.71 1416.14,3420.27 1424.27,3370.88 1394.32,3370.09 1381.82,3350.57 1354.84,3343 1362.78,3303.37 1339.37,3292.82 1315.37,3313.72 1323.3,3370.88 1305.05,3364.91 1275.89,3391.79 1280.26,3425.65 1248.91,3429.43 1235.62,3451.93 1216.77,3448.94 1164.2,3473.63 1131.87,3469.85 1123.94,3526.8 1050.93,3541.15 1025.94,3557.68 1008.48,3550.9 997.571,3570.41 974.953,3560.66 946.388,3592.93 922.382,3587.75 922.382,3614.03 902.545,3614.03 909.094,3662.62 884.303,3669.39 854.344,3643.3 836.882,3659.63 839.663,3686.72 855.136,3694.29 852.951,3723.56 863.864,3743.07 814.075,3759.6 798.006,3736.31 785.705,3756.41 768.047,3722.76 724.211,3739.29 706.754,3763.98 693.661,3736.31 674.616,3721.17 665.888,3727.94 688.5,3766.97 678.98,3768.56 "/>
   <polyline id="_141333568" class="str1" points="3308.05,3690.9 3291.98,3680.34 3298.52,3669.79 3321.93,3670.59 3318.36,3652.46 3330.66,3651.07 3308.84,3616.62 3286.22,3624.78 3285.43,3595.51 3309.44,3588.74 3308.05,3570.82 3348.91,3532.38 3347.52,3549.71 3361.41,3567.83 3348.91,3588.74 3366.56,3599.29 3379.65,3594.71 3377.48,3575.99 3420.52,3581.17 3423.5,3570.02 3392.75,3559.46 3416.16,3550.5 3416.95,3534.77 3434.41,3549.71 3440.36,3529.39 3465.96,3535.57 3496.5,3508.49 3498.09,3494.95 3473.09,3490.36 3465.96,3467.26 3474.68,3453.72 3452.66,3454.52 3457.82,3431.22 3484.2,3421.46 3465.16,3410.91 3459.21,3395.17 3504.63,3386.21 3519.11,3367.49 3557.99,3370.48 3565.14,3338.82 3600.25,3322.29 3650.04,3323.88 3657.18,3305.96 3642.7,3288.63 3633.97,3251 3611.95,3252.59 3599.46,3249.6 3598.07,3228.5 3583.39,3219.53 3584.19,3200.02 3566.73,3197.03 3561.57,3187.27 3517.73,3188.07 3504.63,3165.57 3479.84,3177.52 3465.16,3219.53 3484.8,3221.13 3458.61,3271.31 3451.27,3300.58 3431.44,3267.53 3403.86,3284.06 3387,3267.53 3352.68,3275.09 3347.52,3254.78 3334.43,3254.78 3330.86,3233.68 "/>
   <polyline id="_141333896" class="str1" points="2409.4,3620.4 2415.35,3590.53 2407.23,3545.33 2432.81,3540.15 2419.72,3506.49 2382.43,3501.92 2364.18,3511.67 2370.73,3535.77 2351.68,3536.36 2329.06,3505.7 2361.99,3456.11 2354.66,3432.21 2380.25,3378.84 2407.23,3375.06 2405.04,3348.18 2419.72,3336.83 2393.33,3310.54 2378.06,3327.87 2358.22,3295.61 2418.14,3297 2397.11,3254.39 2406.63,3236.26 2481.02,3254.39 2491.73,3225.71 "/>
   <polyline id="_141344720" class="str1" points="2556.2,4756.89 2597.27,4813.25 2607.38,4835.15 2594.29,4848.49 2609.57,4864.02 2595.09,4899.27 2606.79,4923.37 2592.11,4931.33 2590.72,4973.55 2622.86,4998.44 2623.45,5021.15 2589.13,5039.87 2595.68,5006.21 2558.59,5041.46 2555.61,5016.37 2508,5025.13 2543.91,5076.7 2528.63,5091.44 2543.11,5145.41 2499.27,5151.58 2506.61,5171.3 2451.86,5193.8 2443.72,5179.06 2402.86,5200.97 2409.4,5216.5 2375.88,5257.93 2418.14,5331.4 2429.24,5404.09 2455.43,5465.82 2454.04,5530.74 2429.83,5577.54 2440.16,5597.85 2432.81,5654.21 2452.65,5688.66 2422.7,5707.38 2444.52,5730.88 2454.83,5778.47 2424.88,5818.31 2416.74,5784.65 2390.56,5783.85 2369.93,5812.92 2314.38,5791.82 2287.41,5825.47 2220.15,5846.38 2196.35,5865.9 "/>
   <polyline id="_141343816" class="str1" points="4181.89,2153.94 4160.66,2135.82 4153.72,2146.38 4149.75,2133.83 4126.34,2124.67 4113.05,2129.05 4121.58,2109.34 4136.86,2083.65 4117.81,2085.44 4124.16,2074.28 4098.57,2072.1 4098.17,2054.57 4076.55,2038.24 4058.69,2035.45 4061.27,2017.13 4071.59,1996.62 4055.72,1991.44 4056.91,1979.3 4037.07,1977.11 4044.02,1991.84 4030.13,1996.22 4029.14,2005.58 4010.09,1993.63 3993.23,2016.73 3971.41,2011.95 3967.05,1984.67 3955.34,1985.07 3954.94,2001.2 3947.21,1999.81 3946.22,2010.96 3924,2009.17 3918.44,2028.68 3927.57,2042.62 3916.26,2043.81 3898.41,2031.87 3881.16,2041.63 3882.73,2049.6 3895.04,2049.79 3889.68,2067.91 3876.79,2075.68 3877.18,2100.97 3891.47,2094.4 3900.59,2101.97 3874.2,2128.65 3875.4,2150.75 3880.75,2156.73 3866.27,2175.84 3890.27,2193.97 3920.63,2170.07 3940.66,2171.86 3950.98,2185.6 3964.07,2175.05 3970.22,2188.79 3984.9,2179.03 4004.73,2199.54 4010.09,2208.9 4024.38,2207.91 4023.58,2178.83 4041.83,2170.07 4052.55,2190.18 4076.55,2187.79 4081.31,2197.55 4101.54,2191.38 4108.68,2204.72 4130.31,2204.32 4124.75,2224.83 4129.12,2235.19 4141.22,2211.89 4152.53,2210.5 4151.53,2196.35 4159.87,2187.79 4172.37,2186.4 4174.15,2165.09 4181.89,2153.94 "/>
   <polyline id="_141348216" class="str1" points="1915.65,1645.54 1888.48,1640.16 1905.34,1620.84 1883.52,1606.51 1866.65,1622.24 1843.24,1620.84 1833.13,1598.94 1794.24,1598.94 1774.61,1581.02 1754.17,1589.98 1737.31,1574.24 1718.26,1582.41 1717.67,1557.71 1692.68,1564.68 1678.79,1545.37 1662.13,1548.16 1680.38,1576.23 1733.74,1596.94 1745.44,1639.37 1775.4,1664.86 1773.81,1686.76 1783.33,1696.52 1802.38,1685.37 1834.52,1710.86 1851.38,1699.9 1862.29,1712.25 1885.69,1712.25 1884.11,1702.69 1908.31,1686.16 1898,1673.82 1894.42,1656.69 1915.65,1645.54 "/>
  </g>
 </g>
</svg>
