<svg width="302" height="402" viewBox="0 0 302 402" fill="#6bb565" xmlns="http://www.w3.org/2000/svg">
<path d="M93.808 380.005L94.1055 381.061L93.3721 380.768L92.331 381.131L92.8489 380.601L92.5258 379.904L93.808 380.005ZM106.84 289.348L109.82 289.52L111.276 289.177L111.64 288.545L111.938 288.561L112.753 287.525L112.297 286.586L113.394 285.52L114.687 286.071L115.461 285.404L116.046 286.091L116.743 285.995L117.189 285.323L116.548 284.646L117.246 283.768L117.174 282.712L116.112 281.752L115.953 283.091L115.169 283.071L114.707 282.348L115.666 281.848L113.122 281.369L114.01 281.096L113.764 279.889L114.943 279.853L115.605 279.359L116.261 279.813L117.348 278.828L118.415 279.833L119.128 278.96L119.877 278.869L120.21 280.05L121.292 279.96L121.831 281.066L121.662 279.555L122.016 279.157L122.523 279.369L124.698 278.722L124.57 279.626L124.503 280.424L124.606 281.394L123.97 281.672L124.467 282.096L123.913 283.05L124.836 283.904L125.108 283.813L125.58 283.596L125.636 282.449L126.698 281.909L127.252 283.864H127.554L128.098 282.768L129.596 281.732L129.447 282.217L130.693 283.136L130.591 285.641L131.401 286.111L131.96 287.702L130.98 288.51L131.175 289.364L129.97 290.46L131.529 290.954L131.709 289.864L132.822 288.874L133.365 289.136L132.806 290.121L133.519 290.096L133.54 290.535H133.673L133.309 293.515L133.755 293.954L136.735 293.909L137.099 293L138.109 292.328L137.412 291.717L138.253 290.874L139.114 291.465L138.909 292.586L140.14 292.712L139.432 293.621L140.14 294.98L139.586 295.03L139.238 295.768L140.53 296.263L141.448 298.328L139.663 299.156L140.191 300.566L139.648 300.495L139.525 300.99L139.756 301.621L140.807 301.924L140.479 303.03L141.294 304.03L140.55 304.894L140.222 304.252L139.756 305.096L140.525 305.384L140.063 305.636L140.73 307.414L140.289 307.404L140.227 307.985L141.243 308.313L141.663 309.035L142.033 308.813L142.669 310.172L143.315 309.758L144.264 310.47L144.505 311.419L143.51 311.944L143.007 312.818L143.617 313.374L144.351 313.278L143.833 314.055L144.73 314.692L144.351 315.798L145.761 315.682L146.674 316.485L147.546 316.404L147.802 317.561L148.618 317.742V318.348L149.074 318.263L149.423 318.818L149.669 318.556L149.392 319.404L149.823 319.303L150.228 320.359L150.921 320.773L150.495 321.01L151.115 321.833L150.003 322.384L151.008 323.207L151.003 324.672L150.162 325.424L150.859 326.04L150.874 326.985L149.951 327.591L150.346 328.702L149.679 328.944L150.182 329.657L149.797 330.121L150.792 331.02L151.351 330.677L151.059 331.01L151.957 332.01L151.582 332.268L152.351 333.015L151.372 333.838L149.608 334.283L150.115 333.722L149.992 332.879L150.5 332.737L149.52 332.515L148.869 334.03L147.972 334.667L147.13 332.924L146.11 333.111L144.961 332.263L145.105 333.086L144.556 333.364L144.505 334.096L146.71 336.833L145.91 337.086L145.761 337.763L146.407 338.98L146.023 340.02L146.325 340.985L143.843 341.54L143.592 341.783L144.064 341.823L144.048 342.495L142.166 343.278L141.745 344.131L140.494 344.258L139.643 343.182L138.232 344.293L137.386 344.076L137.083 345.116L137.535 345.52L135.212 347.98L135.36 348.682L136.135 348.707L136.104 349.48L138.299 352.641L138.268 354.954L139.714 359.884L140.622 360.808L140.899 362.641V363.379L140.761 363.641L140.802 363.96L139.95 367.389L139.053 367.758V368.641L139.807 369.374L139.766 370.465L139.32 371.702L139.638 371.939L138.714 372.576L138.873 373.086L139.602 372.717L139.145 373.747L139.648 373.232L139.509 373.727L140.663 375.288L140.084 375.172L139.894 375.732L139.14 375.55L138.237 376.359L140.017 377.657L139.961 379.606L140.73 380.454L140.438 381.606L139.822 382.157L139.14 381.813L138.668 383.429L138.268 381.702L137.176 381.742L137.048 381.192L136.145 381.475L135.001 382.853L131.334 381.596L130.647 382.076L130.621 382.288L130.129 382.98L129.324 383.086L129.421 383.672L128.072 384.747L126.518 385.242L124.97 384.773L124.339 385.187L123.457 386.212L123.072 387.798L118.677 387.005L109.563 382.591L106.409 381.515L104.106 381.222L100.055 383.015L98.6238 381.424L98.6443 380.742L99.3726 380.838L99.3213 380.374L97.5827 379.904L97.2596 378.737L96.0031 379.662L95.9825 380.212L97.2852 380.833L96.7211 381.768L94.5824 380.864L94.885 379.788L94.1157 379.217L94.4183 378.434L95.0389 378.258L94.4542 377.47L93.5003 377.884L93.1721 376.52L92.2027 375.788L91.8796 376.359L92.1361 377.071L91.377 377.758L91.0026 375.848L89.6487 375.808L89.3461 375.409L89.1717 376.091L89.6435 376.677L88.8537 376.53L87.8126 377.197L86.6279 377.237L85.4945 378.662L85.6535 379.5L84.0892 380.641L84.5713 381.353L84.0738 381.828L85.3611 382.763L86.0945 382.636L86.3561 383.49L86.2792 382.985L86.951 383.374L88.0178 383.227L88.0075 382.485L88.4691 382.626L88.5973 382.151L89.7461 382.374L90.5718 381.889L91.3309 383.076L90.9257 383.55L90.7052 382.859L90.2846 383.298L90.5718 384.707L89.6179 385.586L89.1409 385.293L89.4025 384.54L87.7767 383.768L87.3921 384.515L85.7201 385.273L86.074 386.101L86.7715 385.884L86.7048 386.419L84.8944 386.949L83.7918 386.424L83.3097 386.954L81.3659 386.606L80.2274 384.874L79.1862 384.606L78.1913 385.106L77.4938 384.343L76.186 385.591L74.3756 386.192L73.7242 387.348L73.0165 387.025L71.442 387.687L69.4623 387.343L68.929 388.005L67.9391 387.702L67.2621 385.939L64.985 385.909L64.1337 387.353L60.7539 388.545L59.9179 388.359L58.846 387.172L60.5334 386.954L60.0718 385.955L60.7436 385.303L60.1333 385.732L59.2717 385.555L58.3793 386.404L57.41 385.823L56.6305 383.788L55.1944 382.374L54.8406 380.697L56.0304 378.965L55.4355 376.788L56.4971 373.823L56.3176 372.015L57.1382 371.146L57.1844 369.545L58.4665 367.561L57.9998 366.157L56.7433 364.571L56.9843 360.419L59.9179 355.55L60.7898 351.682L62.4771 350.454L62.0771 347.207L63.1079 344.343L63.2516 342.571L64.4824 341.384L64.2875 338.02L65.5646 335.252L67.2006 334.227L69.6418 331.313L69.8983 329.601L71.3292 329.444L71.7856 328.202L72.9908 328.056L73.7396 327.399L75.6885 322.424L77.2681 319.848L78.4118 319.414L80.1043 317.985L80.5351 317.071L81.0172 315.116L82.5455 312.818L82.843 309.47L84.0533 307L83.4071 307.035L83.5815 306.247L86.7766 303.283L85.5304 301.818L87.0844 299.763L87.151 298.687L86.2894 299.424L85.9304 299.04L86.9972 298.055L87.3972 296.394L85.2842 295.641L85.9612 294.626L84.3969 290.53L84.6277 289.035L85.4534 288.747L86.3561 289.05L89.1563 292.47L90.3051 291.631L90.6795 291.793L90.9513 291.151L90.2744 287.742L93.449 287.071L93.2951 287.813L93.09 287.126L92.7156 287.394L93.6131 288.353L93.0592 289.424L93.8695 290.757L93.767 291.404L94.7773 292.258L94.7722 292.126L96.8903 292.586L97.7263 291.954L97.5519 292.879L98.0289 293.576L98.511 293.121L100.214 293.03L100.26 293.924L99.4957 294.803L99.0187 294.838L98.7059 293.985L97.8289 294.742L98.2238 296.444L97.039 297.601L97.475 298.273L98.0186 297.737L98.6135 298.348L100.05 297.061L100.316 295.944L100.67 296.258L101.88 295.374L101.265 294.662L101.563 293.934L102.009 294.03L101.932 292.985L103.04 292.672L104.342 293.303L105.04 292.763L105.173 292.52L105.645 291.692L106.778 291.894L107.004 292.702L107.64 292.343L105.891 289.965L105.937 289.439L106.25 290.141L106.804 290.192L106.84 289.348Z" fill="#CFE7CD" stroke="white" stroke-width="0.5"/>
<path d="M137.524 242.414L138.53 241.889L138.473 241.424L139.704 240.02L140.827 241.081L141.094 240.601L141.894 241.081L142.022 240.626L142.822 240.505L142.976 241.202L143.735 241.677L143.751 242.682L144.53 242.581L146.043 243.56L146.961 243.545L147.187 244.985L148.197 246.343L148.643 246.283L148.295 246.661L149.325 246.985L148.731 247.833L149.079 248.586L150.946 248.192L151.633 249.611H151.874L152.239 249.52L152.228 250.53L152.895 250.303L152.987 250.788L153.562 250.005L153.957 250.091L154.516 251.404L155.762 251.616L155.511 252.919L155.905 253.672L155.485 254.742L156.023 254.732L155.721 255.151L156.126 255.858L155.685 256.035L156.018 256.808L156.736 257.166L157.701 256.818L158.875 257.722H159.044L159.593 258.091L160.019 257.752L160.075 255.747L161.311 256.242L162.352 255.727L163.05 256.429L163.834 256.096L163.798 254.545L162.686 254.348H162.506L162.419 253.732L161.362 253.651L160.419 252.525L159.567 252.262L159.983 251.076L159.485 251L159.578 250.071L160.834 250.389L161.865 249.05L162.491 249.318L163.368 248.661L164.352 248.889L164.809 248.459L165.301 249.267L165.855 248.939L166.101 248.843L166.753 248.666L168.353 250.909L168.773 250.828L168.64 250.025L170.055 250.293L170.291 251.101L171.635 250.707L171.753 250.025L172.615 249.959L172.702 250.843L173.353 250.641L174.004 251.778L173.204 253.318L173.62 254.03L174.799 254.278L174.589 254.823L175.061 254.661L175.22 253.656L177.061 254.889L177.23 253.868H177.364L177.066 253.626L177.646 252.995L177.384 251.444L177.871 251.485L177.389 250.712L178.143 250.273L177.277 248.262L177.569 246.727L176.959 245.793L176.943 244.293L178.225 243.975L178.354 244.454L178.718 243.757L179.379 243.687L179.354 242.793L180.19 242.682L180.154 242.177L182.933 242.656L183.257 243.257L183.077 243.656L182.58 243.535L182.59 246.035L183.58 246.672L183.328 247.273L184.041 246.661L184.636 246.752L184.513 248.242L185.872 248.485L185.918 249.545L187.159 249.015L187.529 248.278L188.257 248.131L189.272 248.909L191.996 248.156L192.191 248.48L193.006 247.823L193.806 247.985L193.447 247.545L194.104 247.762L194.329 247.298L195.817 248.151V248.813L199.037 247.106L200.017 247.889L199.884 248.515L200.376 248.293L200.986 248.868L200.797 250.767L201.448 250.586L203.048 252.025L203.084 251.712L204.535 251.631L204.833 252.409L205.633 252.99L205.428 253.454L206.115 254.535L204.735 255.202L204.53 255.853L205.689 256.682L206.448 256.54L206.761 257.788L207.238 257.651L207.515 258.368L207.977 258.394L207.715 258.616L208.587 259.914L207.884 261.232L208.059 262.884L209.1 263.631L209.643 263.48L210.526 264.53L210.069 265.434L211.915 265.707L212.259 266.722L212.587 266.374L213.567 267.485L214.644 267.56L214.69 268.101L215.634 268.227L215.67 269.116L216.593 268.591L217.557 269.288L217.86 269.747L216.931 270.909L217.162 271.54L219.434 272.303L219.531 273.298L217.808 275.5L217.824 276.409L217.065 276.53L216.731 277.773L216.988 278.98L214.675 280.257L214.731 281.166L215.982 283.101L217.47 283.914L218.588 283.949L218.793 287.333L219.855 287.257L220.814 291.298L221.85 291.858L222.337 291.571L222.588 292.01L222.245 294.308L223.004 295.485L223.019 296.414L224.691 296.899L226.291 298.374L227.04 300.732L229.26 300.848L230.373 301.596L230.358 300.571L232.389 300.879L234.44 302.773L235.164 302.848L235.323 304.798L235.989 304.838L236.23 305.485L236.887 305.677L237.107 306.606L237.959 307.086L237.871 307.863L239.846 309.323L240.067 311.065L241.928 312.207L243.682 311.975L247.088 315.156L247.411 318.434L250.416 320.656L250.837 320.596L250.826 319.308L251.611 319.055L253.206 319.242L254.129 320.838L254.796 320.273L254.586 320.788L256.176 323.641L257.632 323.768L258.345 323.353L259.196 325.833L260.14 326.106L260.853 327.656L260.54 328.495L261.674 328.944L260.191 331.687L260.761 332.358L261.591 332.505L260.776 332.853L261.125 336.596L260.371 337.48L260.386 338.52L259.35 339.495L258.986 339.01L258.586 339.535L258.673 340.565L258.135 341.424L255.986 340.475L255.606 339.793L254.047 338.904L252.975 339.217L250.857 337.778L250.775 338.475L249.785 339.409L248.954 339.02L248.57 339.308L249.18 341.555L248.154 344.222L248.57 345.49L247.647 348.202L245.149 350.55L242.569 352.151L240.174 352.04L234.917 353.838L232.845 356.151L229.989 356.525L229.25 358.187L227.676 359.207L227.224 360.328L226.322 360.172L226.04 361L226.46 362.747L229.373 365.5L230.127 368.02L231.415 368.338L231.686 369.146L232.209 368.964L234.348 373.454L231.876 377.141L232.363 377.525L231.225 379.464L231.886 380.071L233.307 380.217L234.789 379.464L236.866 381.207L236.748 382.02L237.456 383.687L236.276 385.257L236.564 385.939L235.635 386.475L236.138 387.151L235.282 388.429L235.794 389.055L235.753 390.49L234.328 391.828L234.035 391.106L233.374 390.803L233.184 391.318L231.256 390.237L230.389 389.06L229.44 388.656L229.25 387.884L227.599 387.449L227.071 386.227L227.635 385.086L228.507 384.752L226.368 382.909L227.142 381.848L226.347 382.293L225.455 381.51L223.788 381.404L222.762 382L221.321 381.884L220.373 383.793L219.106 383.636L217.808 384.161L215.859 381.767L215.89 380.833L213.526 381.353L212.495 380.747L209.854 381.596L209.397 380.879L210.151 379.025L209.746 378.555L208.515 380.025L206.843 380.591L208.048 383.545L208.141 385.055L207.223 385.313L207.32 384.682L206.043 385.091L203.551 384.449L202.207 384.874L201.817 384.146L200.75 384.702L198.714 384.682L196.827 385.247L196.458 386.202L194.432 385.757L190.529 386.101L189.662 385.601L189.585 386.268L188.595 386.353L188.072 388.879L187.565 389.374L185.395 389.843L182.995 389.454L181.385 391.399L182.154 391.616L182.61 392.717L179.856 392.5L178.333 393.55L178.287 394.48L177.595 394.975L176.138 395.071L177.087 393.51L175.533 393.237L172.984 394.262L172.589 395.01L168.045 394.924L167.814 394.136L168.271 393.409L166.486 391.475L166.691 391.015L164.527 390.944L164.645 390.015L166.106 389.48L165.132 388.343L161.562 389.429L160.947 388.475L158.865 387.985L158.721 387.293L155.721 386.838L154.864 388.5L153.274 388.439L151.054 387.464L151.885 386.055L150.49 386.096L150.233 386.439L150.961 387.53L150.264 389.944L150.659 390.823L151.49 391.202L151.715 393.268L150.433 394.313L150.418 395.712L149.125 395.964L146.961 399.318L143.786 400.959L142.735 400.667L141.915 401L142.022 399.762L143.171 398.99L142.679 398.262L143.91 395.677L143.586 395.404L143.12 395.798L142.14 395.172L141.535 396.333L140.012 396.035L139.371 396.959L138.453 394.283L139.581 393.49L139.201 392.303L137.935 391.707L137.56 390.682L136.16 390.899L135.714 390.197L135.986 389.949L134.996 389.065L135.17 387.894L134.924 388.439L133.539 388.682L132.242 387.803L131.996 388.747L130.073 387.803L130.462 386.333L129.611 385.56L128.324 386.111L127.488 388.495L123.041 387.813L123.426 386.227L124.308 385.202L124.939 384.788L126.488 385.262L128.047 384.767L129.396 383.692L129.298 383.106L130.103 383L130.59 382.308L130.616 382.096L131.303 381.611L134.97 382.868L136.114 381.495L137.017 381.212L137.145 381.767L138.232 381.727L138.637 383.449L139.109 381.838L139.796 382.182L140.407 381.631L140.704 380.48L139.93 379.626L139.986 377.682L138.207 376.384L139.109 375.576L139.858 375.757L140.048 375.197L140.632 375.313L139.478 373.747L139.617 373.257L139.114 373.773L139.571 372.742L138.842 373.111L138.683 372.601L139.607 371.964L139.284 371.727L139.73 370.49L139.771 369.399L139.017 368.666V367.783L139.914 367.414L140.766 363.985L140.725 363.666L140.868 363.404V362.661L140.591 360.833L139.684 359.909L138.242 354.98L138.273 352.666L136.078 349.505L136.109 348.732L135.329 348.707L135.186 348.005L137.509 345.545L137.058 345.136L137.36 344.096L138.201 344.318L139.612 343.202L140.463 344.278L141.715 344.151L142.14 343.298L144.022 342.515L144.033 341.843L143.561 341.803L143.812 341.56L146.294 341.005L145.997 340.04L146.376 338.995L145.73 337.778L145.879 337.106L146.679 336.853L144.474 334.111L144.52 333.379L145.069 333.101L144.925 332.278L146.079 333.126L147.1 332.939L147.941 334.682L148.838 334.045L149.49 332.525L150.469 332.752L149.967 332.894L150.084 333.732L149.577 334.293L151.341 333.848L152.321 333.03L151.551 332.278L151.926 332.02L151.028 331.025L151.32 330.692L150.761 331.04L149.767 330.136L150.151 329.672L149.649 328.959L150.315 328.717L149.92 327.606L150.844 327L150.833 326.055L150.131 325.439L150.977 324.687L150.982 323.227L149.977 322.399L151.095 321.848L150.469 321.02L150.9 320.783L150.208 320.368L149.802 319.313L149.372 319.414L149.649 318.565L149.407 318.828L149.054 318.267L148.602 318.353V317.747L147.787 317.565L147.53 316.409L146.659 316.49L145.746 315.687L144.335 315.803L144.715 314.697L143.817 314.06L144.34 313.278L143.607 313.379L142.997 312.823L143.499 311.949L144.494 311.424L144.258 310.48L143.304 309.767L142.663 310.182L142.027 308.818L141.658 309.04L141.238 308.318L140.217 307.99L140.279 307.409L140.725 307.419L140.058 305.641L140.52 305.389L139.75 305.101L140.217 304.257L140.545 304.899L141.284 304.035L140.468 303.035L140.796 301.929L139.75 301.626L139.514 300.995L139.643 300.5L140.181 300.571L139.653 299.161L141.438 298.333L140.52 296.262L139.227 295.768L139.576 295.035L140.135 294.985L139.427 293.626L140.135 292.717L138.904 292.586L139.109 291.464L138.242 290.879L137.406 291.717L138.104 292.328L137.094 293.005L136.729 293.914L133.755 293.954L133.304 293.515L133.668 290.54H133.534L133.509 290.101L132.796 290.126L133.355 289.141L132.816 288.879L131.703 289.869L131.524 290.954L129.965 290.459L131.165 289.368L130.975 288.515L131.955 287.707L131.396 286.116L130.585 285.646L130.688 283.141L129.442 282.222L129.59 281.737L128.093 282.773L127.549 283.869H127.252L126.693 281.914L125.631 282.454L125.575 283.601L125.108 283.818L124.836 283.909L123.913 283.055L124.467 282.101L123.969 281.682L124.605 281.404L124.503 280.434L124.575 279.631L124.703 278.727L122.528 279.374L122.021 279.161L121.662 279.56L121.831 281.071L121.297 279.959L120.215 280.05L119.882 278.868L119.133 278.959L118.42 279.833L117.353 278.828L116.266 279.813L115.61 279.358L114.943 279.858L113.763 279.894L114.015 281.101L113.127 281.374L115.671 281.853L114.712 282.353L115.174 283.076L115.958 283.096L116.117 281.757L117.174 282.712L117.246 283.773L116.548 284.651L117.189 285.323L116.748 286L116.046 286.091L115.461 285.404L114.687 286.065L113.394 285.515L112.291 286.581L112.753 287.525L111.938 288.56L111.64 288.545L111.276 289.177L109.819 289.52L106.84 289.348L106.204 288.202L105.665 288.111L105.66 287.262L106.809 286.182L106.414 283.601L107.665 283.227L107.476 282.576L108.301 281.237L106.978 280.348L107.865 279.187L107.64 278.5L106.419 278.732L105.999 277.434L106.276 275.985L105.588 276.722L105.204 276.348L105.476 276.005L104.65 276.111L104.547 274.99L105.111 274.959L104.214 272.803L104.06 269.439L104.306 268.732L105.081 268.661L104.588 268.116L104.409 266.323L102.701 265.939L103.419 264.889L103.393 263.757L104.091 262.778L107.368 262.02L108.512 262.495L108.424 263.762L109.712 262.005L109.543 261.444L110.696 260.889L111.784 261.419L113.599 261.682L114.204 261.313L114.615 261.762L115.558 261.773L116.605 263.823L117.641 264.121L120.2 263.611L120.051 261.071L120.472 260.858L120.723 260.04L120.677 259.975L119.738 259.51L119.805 258.692L120.302 258.384L119.636 257.015L119.805 256.252L121.169 257.101L122.287 256.707L122.503 257.252L125.17 256.661L125.205 256.283L124.293 255.803L124.836 254.767L126.385 254.273L127.857 252.823L127.867 251.232L127.421 250.51L128.36 247.01L128.985 247.333L129.678 247.01L129.888 247.611L131.519 248.434L131.924 247.767L132.288 248.283L132.934 248.086L134.806 247.06L136.109 245.156L136.755 244.909L137.524 242.414Z" fill="#CFE7CD" stroke="white" stroke-width="0.5"/>
<path d="M249.79 131.152L249.826 131.172L250.191 131L250.155 131.702L251.324 132.414L250.493 134.374L250.847 135.192L252.216 135.434L253.273 136.328L253.329 137.49L254.986 137.874L254.729 138.439L255.663 138.5L254.16 141.566L254.56 141.859L255.365 141.187L257.273 142.455L257.094 141.773L258.991 143.071L258.355 143.646L257.878 143.535L258.458 143.808L258.473 143.929L258.314 143.95L258.13 144.273L258.355 144.848L258.032 145.374L256.632 146.081L257.068 146.677L256.191 147.131L255.376 148.576L255.011 148.202L255.247 146.561L254.765 146.263L254.032 146.667L253.534 145.702L251.75 145.909L251.714 145.348L249.883 145.566L249.447 144.303L247.929 144.823L247.919 146.616L246.903 146.52L246.826 145.97L246.303 145.955L245.421 144.798L244.667 145.182L244.159 145.02L243.918 144.48L243.164 145.106L242.344 145.096L242.236 144.278L241.574 144.212L239.677 145.005L239.385 145.515L239.8 145.581L238.549 145.828L238.374 145.838L238.697 145.424L237.574 144.793L237.415 144.707L237.179 144.702L237.384 144.152L238.251 143.323L237.825 142.727L238.097 141.202L239.702 139.561L238.918 139.015L238.072 139.162L238.395 137.419L239.005 137.278L239.261 136.111L238.451 135.495L239.6 134.843L241.323 135.424L240.831 134.419L241.456 133.298L242.862 133.328L242.775 132.646L243.482 132.551L243.493 131.551L244.364 131.732L244.354 133.242L245.995 133.52L247.129 132.227L248.072 132.864L248.765 132.106L249.621 132.061L248.96 131.444L249.247 131.091L249.714 130.823L249.908 130.879L249.79 131.152Z" fill="#CFE7CD" stroke="white" stroke-width="0.5"/>
<path d="M177.564 106.985L181.677 107.586L181.821 106.071L182.6 105.99L183.236 106.313L183.969 106.03L184.246 106.752L185.287 107.086L186.231 106.833L187.021 106.151L186.826 105.454L187.37 104.677L186.852 102.303L188.026 102.066L189.319 100.667L190.647 100.409L192.632 101.071L192.729 101.843L194.196 101.328L195.57 101.465L195.976 100.848L194.863 99.9393L196.945 100.182L197.996 98.6665L199.848 99.015L200.658 97.5302L201.335 97.8585L202.263 97.3787L202.079 95.5706L203.479 94.6716L203.048 93.515L204.161 93.7473L204.238 94.8686L205.202 95.01L206.5 94.1059L207.089 95.2726L207.628 95.0857L207.689 94.5403L209.079 94.2372L209.992 96.1211L211.69 95.8938L214.377 97.3938L214.398 98.2524L215.526 98.7726L216.085 100.141L218.706 99.3635L221.326 100.449L223.162 99.9191L223.645 100.177L223.306 101.01L223.896 101.384L226.245 101.535L225.66 102.803L226.681 103.47L229.209 102.717L230.214 103.869L231.05 103.106L231.886 103.025L231.604 103.429L232.235 103.505L232.153 103.086L233.076 102.763L233.594 103.227L232.379 104.151L232.907 103.959L233.44 104.838L234.41 104.591L235.517 103.055L236.769 102.793L237.056 102.081L237.687 101.99L237.651 100.904L238.472 100.914L239.138 100.131L240.236 100.167L240.887 101.626L241.785 101.965L242.262 99.8181L244.051 98.5201L245.308 98.9241L246.036 98.6817L246.872 100.571L247.508 100.242L247.452 100.151L248.575 98.2676L248.513 97.5453L249.093 97.5251L249.349 98.0403L250.067 97.8585L250.652 96.0706L251.293 96.3938L251.088 94.6059L251.355 93.8787L251.96 93.9544L252.427 93.2676L252.227 92.1413L253.401 91.3383L254.693 91.515L254.924 89.8181L257.56 87.6716L258.396 87.4393L259.576 88.0857L260.786 87.4544L261.114 86.808L259.54 85.8787L260.14 83.4595L261.114 85.6665L262.894 86.3888L262.827 88.0403L264.12 89.1413L263.653 90.3585L264.171 90.8585L266.925 90.1716L268.407 90.4342L268.592 91.3231L269.731 91.4645L270.89 89.8332L272.808 90.8433L273.731 90.7625L274.203 90.1766L274.757 90.5201L274.916 92.6817L274.305 94.2524L271.172 97.5504L270.12 99.4847L272.126 99.2322L273.844 99.9039L275.47 99.6261L275.521 98.717L276.782 98.212L277.3 96.8635L278.295 96.9292L280.383 95.8181L280.68 98.6362L281.285 98.7726L281.532 99.4696L280.121 102.293L279.224 102.874L278.931 104.924L279.567 106.005L278.808 109.348L278.172 110.747L275.398 113.328L271.638 115.606L272.172 119.687L270.936 122.151L271.562 122.884L274.054 123.303L276.029 125.52L278.408 126.798L282.091 131.52L286.435 134.308L287.773 136.242L286.655 138.278L287.619 140.54L285.865 143.111L284.86 143.56L284.373 145.576L285.26 149.055L285.978 150.111L285.706 151.071L286.276 151.934L289.399 152.853L290.24 153.904L289.994 155.343L289.312 155.99L289.937 157.328L289.127 158.773L289.194 160.197L291.712 162.848L291.266 163.439L291.353 164.606L290.261 166.136L290.496 166.651L289.963 167.52L290.466 169.273L289.625 171.414L286.86 173.818L286.224 175.288L286.753 176.449L288.035 176.934L288.778 180.55L291.03 182.5L291.671 183.954L291.917 186.687L290.784 187.985L289.696 187.172L289.917 188.172L289.127 189.475L287.03 189.626L286.409 188.51L285.476 188.066L284.716 188.459L284.506 189.156L281.773 189.247L281.547 189.99L279.619 190.045L278.111 191.247L277.818 192.03L277.536 191.611L277.516 191.369L275.752 190.535L274.962 190.773L273.91 190.167L271.423 189.965L271.156 190.54L271.515 190.995L270.377 191.121L270.023 192.308L269.361 192.581L269.808 193.384L268.028 193.439L268.961 195.02L268.146 195.525L268.418 196.384L267.459 197.086L267.823 197.525L267.064 197.601L266.879 198.712L265.966 198.54L265.992 197.667L265.582 197.505L263.853 198.364L261.52 198.121L261.022 198.899L259.837 198.848L259.514 199.252L259.294 198.848L258.453 199.288L256.027 198.53L255.74 198.899L253.709 198.929L253.442 198.167L252.821 198.096L251.996 198.899L251.791 198.273L251.334 198.247L251.221 197.227L249.36 196.707L249.698 196.364L248.811 195.651L247.98 196.192L248.206 195.576L247.288 194.591L246.518 195.475L246.6 196.035L244.811 195.444L244.985 196L243.6 196.757L243.58 197.414L242.764 197.323L242.969 198.121L241.256 197.54L240.559 195.475L240.405 196.116L239.969 195.899L240.877 194.732L240.2 193.485L240.277 192.621L240.826 192.581L241.02 190.949L240.297 189.237L238.938 188.631L239.513 187.348L238.236 185.965L237.087 186.555L235.979 184.626L239.102 182.636L239.513 182.222L239.251 181.273L240.328 180.98L239.251 179.5L239.636 179.182L239.087 178.298L239.579 176.343L238.241 173.742L239.236 173.51L238.795 172.525L238.179 172.414L236.918 173.131L235.615 172.97L235.184 172.495L235.543 172.5L235.748 171.47L233.379 171.495L233.44 170.384L232.82 170.278L232.886 169.626L231.625 169.414L230.63 170.035L230.537 169.682L229.425 169.631L229.184 167.924L227.06 168.192L226.265 166.944L223.511 165.626L223.014 165.591L222.639 166.545L221.655 166.682L221.588 167.187L219.219 167.005L219.09 166.121L217.608 165.54L217.244 164.515L216.654 164.459L216.29 165.364L215.788 165.404L214.285 164.01L213.3 163.773L211.803 161.449L210.572 160.818L210.125 159.353L208.71 157.434L208.992 156.626L209.633 156.636L209.659 155.207L211.295 154.343L210.069 153.99L210.469 153.722L209.597 153.086L210.613 149.712L211.618 148.136L210.808 147.121L211.526 146.475L211.136 146.045L211.382 144.959L210.51 144.54L211.254 144.066L210.997 143.707L212.387 141.212L211.659 140.651L212.367 140.202L210.418 140.737L210.054 140.263L210.392 139.995L209.495 138.879L208.7 139.959L207.628 140.222L207.028 139.273L207.777 138.283L207.166 137.924L206.269 138.404L207.443 136.055L207.11 133.369L208.177 133.707L209.064 133.156L209.125 132.651L209.325 130.399L208.761 129.975L208.931 129.192L208.346 128.793L208.454 128.333L208.064 128.434L208.823 127.05L208.397 126.283L208.772 124.737L209.731 124.646L209.992 123.838L209.202 120.838L208.125 120.495L207.915 119.959L205.658 121.308L205.597 119.151L205.207 120.076L202.289 119.353L200.879 120.126L197.95 119.116L197.222 118.333L196.073 118.318L195.678 117.692L196.54 116.651L196.401 116.035L194.504 115.596L193.068 114.076L191.514 114.697L190.949 113.055L189.293 112.869L189.744 111.444L188.452 111.566L186.759 110.626L185.498 110.884L183.682 109.273L179.943 110.505L177.795 108.217L177.564 106.985ZM249.247 131.091L248.96 131.444L249.621 132.06L248.765 132.106L248.072 132.864L247.129 132.227L245.995 133.52L244.354 133.247L244.364 131.732L243.492 131.55L243.482 132.55L242.774 132.646L242.862 133.328L241.456 133.298L240.831 134.419L241.323 135.424L239.6 134.843L238.451 135.5L239.261 136.111L239.005 137.278L238.389 137.419L238.066 139.161L238.918 139.015L239.697 139.56L238.092 141.207L237.82 142.732L238.246 143.328L237.384 144.156L237.179 144.707L237.415 144.712L237.574 144.798L238.697 145.429L238.374 145.843L238.548 145.833L239.8 145.586L239.384 145.515L239.677 145.005L241.574 144.217L242.236 144.283L242.344 145.106L243.159 145.116L243.913 144.49L244.154 145.025L244.662 145.187L245.416 144.803L246.298 145.959L246.816 145.975L246.893 146.52L247.908 146.621L247.918 144.828L249.437 144.308L249.872 145.571L251.703 145.353L251.734 145.909L253.519 145.702L254.022 146.667L254.755 146.263L255.232 146.56L254.996 148.202L255.36 148.576L256.176 147.136L257.047 146.677L256.612 146.081L258.012 145.374L258.335 144.848L258.114 144.268L258.299 143.944L258.458 143.924L258.442 143.803L257.863 143.53L258.34 143.641L258.976 143.066L257.078 141.768L257.258 142.449L255.35 141.187L254.545 141.858L254.145 141.571L255.647 138.5L254.714 138.439L254.97 137.874L253.314 137.49L253.257 136.328L252.201 135.434L250.826 135.192L250.473 134.374L251.303 132.414L250.134 131.707L250.165 131.005L249.801 131.177L249.888 130.884L249.693 130.833L249.426 131.192L249.247 131.091Z" fill="#CFE7CD" stroke="white" stroke-width="0.5"/>
<path d="M86.8021 101.394L87.1714 101.343L88.8689 102.374L89.669 101.929L90.3409 102.197L89.71 103.298L90.7255 103.318L91.1409 104.333L92.9103 104.162L93.6386 103.626L93.8283 104.071L94.5771 103.894L95.049 104.773L97.8851 104.752L98.2184 105.121L98.3159 105.591L98.9365 106.338L98.9929 106.505L100.634 106.449L101.644 105.394L102.906 106.773L101.757 107.323L102.25 108.207L103.116 108.338L102.224 109.01L102.311 110.343L102.834 111.071L101.403 112.247L101.326 112.798L99.9981 112.793L99.0749 111.394L99.0442 112.384L97.6338 112.459L96.1773 111.439L95.9977 110.692L95.4592 111.485L94.2386 111.434L93.8181 110.621L93.9873 109.48L92.5308 108.692L92.6487 108.035L91.3666 106.131L91.0025 104.601L87.4534 102.965L87.315 102.793L86.52 101.515L86.7765 101.328L86.8021 101.394ZM87.7971 80.9747L90.1562 81.6615L90.8999 81.0353L91.8794 81.1868L91.7923 80.7524H92.3564L90.9666 82.6514L91.3204 83.611L91.8692 83.712L91.6589 85.1565L92.0436 85.909L91.4589 86.9343L90.6178 87.5605L89.946 87.0908L89.5459 87.4393L88.674 85.6009L88.9459 85.4242L89.3869 85.4848L89.428 84.2575L89.6741 84.4949L89.0638 83.8585L89.1151 82.5201L88.7664 82.4747L88.6689 83.1716L87.7971 80.9747Z" fill="#CFE7CD" stroke="white" stroke-width="0.5"/>
<path d="M127.319 83.606L128.657 79.5504L128.703 80.3484L129.498 80.6009L129.596 81.5908L130.786 81.9999L132.56 80.0302L133.083 78.4393L135.448 78.7676L136.104 76.8837L138.279 77.0555L138.694 75.6262L138.361 75.2827L138.791 74.7575L140.115 75.1363L141.669 73.7676L142.499 74.1868L142.453 74.5656L142.12 75.3534L141.299 75.6312L141.381 76.3686L140.848 77.0504L142.197 77.8231L142.658 78.6666L142.402 79.1767L143.392 79.4342L142.387 80.5959L142.643 82.0353L141.074 82.7171L141.438 85.4595L142.274 86.0252L143.048 85.5555L144.023 87.6312L145.71 89.2676L146.813 89.4393L146.233 90.2726L144.771 90.9949L143.961 92.2827H141.858L137.853 88.6565L137.709 89.5454L136.807 89.5656L137.145 90.2019L135.658 91.207L134.247 90.5757L133.386 91.3332L133.099 91.2221L133.56 90.1666L132.996 89.0555L131.611 89.9949L131.627 90.4696L129.842 88.6767L129.739 87.106L129.047 87.1969L129.129 86.712L128.396 86.2019L128.893 85.5959L128.473 84.4797L128.77 83.7878L127.319 83.606Z" fill="#CFE7CD" stroke="white" stroke-width="0.5"/>
<path d="M118.21 184.651L119.677 184.121L119.533 185.207L120.123 185.687L121.256 184.995L122.087 185.803L123.923 185.197L124.303 186.606L126.006 188.242L125.636 188.727L124.041 187.874L123.923 188.606L124.59 189.555L123.821 189.712L123.246 189.06L123.754 190.5L122.6 191.348L124.467 193.737L123.959 194.97L124.508 196.424L124.005 197.096L122.354 197.298L121.733 198.424L122.313 198.853L122.041 199.313L120.831 199.055L121.81 200.197L123.216 201.232L124.118 201.192L124.067 201.909L125.359 201.566L127.452 202.747L128.57 202.167L128.713 200.616L127.621 201.5L126.411 199.222L127.734 198.869L128.667 197.98L129.57 198.111L129.472 196.954L130.221 196.763L130.888 197.242L130.924 198.212L131.744 198.833L131.273 196.621L132.18 197.091L132.303 196.606L132.939 196.465L133.878 197.732L133.796 198.636L133.693 199.712L134.458 201.495L134.16 202.136L135.135 202.485L135.242 203.298L137.96 203.601L137.689 204.884L138.689 205.424L138.391 206.268L139.837 206.838L140.689 206.56L141.002 207.247L141.561 207.015L142.545 208.02L143.894 208.364L142.751 210.131L143.063 211.439L142.648 212.096L141.571 210.04L140.058 210.747L141.858 211.919L140.899 213.54L141.197 214.338L140.766 214.818L142.874 216.06L143.186 216.53L142.474 216.909L142.843 217.459L140.956 218.227L140.063 217.328L139.514 217.656L137.442 217.192L136.796 218.803L137.494 219.515L137.565 220.449L138.227 220.677L137.114 221.045L136.955 220.742L136.555 221.197L134.534 220.803L134.652 221.757L135.001 221.288L135.76 221.338L135.232 222.545L136.55 221.843L137.812 222.934L137.709 223.49L138.094 223.449L138.135 223.843L136.899 224.697L136.863 225.581L137.407 225.358L137.047 226.288L136.36 226.156L136.068 226.732L135.55 226.5L135.34 226.424L134.611 226.97L134.314 228.066L134.632 229.379L133.729 229.358L133.596 230.126L134.145 230.298L134.196 231.141L133.16 232.838L133.632 233.419L132.201 234.626L132.114 236.136L134.842 236.687L135.099 236.086L134.483 235.308L134.637 234.773L136.17 234.313L137.919 234.581L138.853 237.035L137.766 236.99L137.371 237.636L138.16 240.409L137.422 241.752L137.524 242.414L136.755 244.909L136.109 245.156L134.806 247.06L132.934 248.086L132.288 248.283L131.924 247.768L131.519 248.434L129.888 247.611L129.678 247.01L128.985 247.333L128.36 247.01L127.421 250.51L127.867 251.232L127.857 252.823L126.385 254.273L124.836 254.768L124.293 255.803L125.205 256.283L125.17 256.661L122.503 257.252L122.287 256.707L121.169 257.101L119.805 256.252L119.636 257.015L120.302 258.384L119.805 258.692L119.738 259.51L120.677 259.975L120.723 260.04L120.472 260.858L120.051 261.071L120.2 263.611L117.641 264.121L116.605 263.823L115.558 261.773L114.615 261.762L114.205 261.313L113.599 261.682L111.784 261.419L110.697 260.889L109.543 261.444L109.712 262.005L108.425 263.763L108.512 262.495L107.368 262.02L104.091 262.778L103.393 263.757L103.419 264.889L102.701 265.939L104.409 266.323L104.588 268.116L105.081 268.661L104.306 268.732L104.06 269.439L104.214 272.803L105.111 274.959L104.547 274.99L104.65 276.111L105.476 276.005L105.204 276.348L105.588 276.722L106.276 275.985L105.999 277.434L106.419 278.732L107.64 278.5L107.866 279.187L106.978 280.348L108.301 281.237L107.476 282.576L107.665 283.227L106.414 283.601L106.809 286.182L105.66 287.262L105.665 288.111L106.204 288.202L106.84 289.348L106.747 290.197L106.194 290.151L105.881 289.444L105.835 289.97L107.583 292.348L106.947 292.712L106.722 291.904L105.588 291.702L105.117 292.535L104.983 292.778L104.286 293.313L102.983 292.682L101.875 292.995L101.952 294.035L101.511 293.944L101.214 294.667L101.824 295.379L100.619 296.262L100.265 295.954L99.993 297.066L98.557 298.353L97.9621 297.742L97.4133 298.283L96.9774 297.611L98.1621 296.454L97.7672 294.752L98.6493 293.995L98.9622 294.853L99.4391 294.818L100.203 293.939L100.157 293.04L98.4544 293.131L97.9724 293.586L97.4954 292.889L97.6698 291.965L96.8389 292.596L94.7208 292.136V292.273L93.7104 291.414L93.8181 290.768L93.0078 289.434L93.5566 288.369L92.6642 287.404L93.0386 287.136L93.2437 287.828L93.3976 287.086L90.223 287.757L90.9 291.167L90.6281 291.813L90.2537 291.646L89.1049 292.485L86.3047 289.066L85.402 288.763L84.5763 289.05L83.3198 286.934L82.5095 283.677L85.0841 282.192L86.4329 280.197L86.1867 279.853L84.6174 279.879L83.1865 277.177L83.3557 275.535L82.053 274.459L82.3864 272.459L81.3094 269.53L78.7707 266.995L76.791 266.601L72.0932 268.172L69.7699 269.459L67.0364 269.763L66.4414 269.338L65.9799 267.712L63.3796 265.48L64.3438 264.182L65.4875 264.167L65.2567 263.439L65.9388 262.005L66.9799 262.636L67.5646 262.283L68.4878 263.222L68.2006 261.646L68.5698 261.146L66.9953 259.929L66.9543 259.262L67.8364 258.656L67.8416 258.177L69.0211 257.858L69.1545 257.374L70.3187 256.954L70.3905 256.449L71.1803 257.449L71.8522 257.545L72.5086 256.48L72.3753 256.303L71.5034 255.459L71.9752 254.783L73.1856 254.712L73.4061 255.257L74.2678 255.313L74.6832 253.374L74.1447 252.843L74.119 251.995L73.1446 251.717L73.2933 250.934L72.7445 249.596L72.2932 249.555L72.2009 249.03L71.3034 249.081L71.5085 248.283L70.3187 248.328L69.6007 247.747L70.3084 247.151L70.4008 246.566L69.9751 246.384L71.129 245.606L70.0674 243.884L70.6213 241.99L72.2009 240.338L73.0984 241.273L74.1498 241.55L75.2063 240.672L75.7345 238.232L74.8986 237.702L75.3499 236.56L74.3601 235.177L74.8422 233.869L76.2423 231.404L75.0165 229.116L75.1448 228.596L75.3499 228.53L79.4887 223.959L80.2939 223.904L80.7811 224.959H82.4992L84.8994 222.076L85.8072 222.015L85.479 220.884L85.7508 219.621L86.397 219.454L86.2893 219.086L88.3305 216.889L87.7356 215.646L87.2791 215.803L87.992 214.636L87.1919 213.793L88.0228 212.919L89.0075 212.616L92.2385 213.045L93.136 212.369L94.3156 212.268L93.6848 211.581H93.5617L93.5258 210.864L95.5568 208.828L95.2029 207.717L95.8542 207.197L94.9977 206.687L94.5515 205.03L94.8387 204.454L94.3669 203.874L93.3873 203.752L90.2384 205.237L88.9818 203.687L91.0384 200.672L91.5872 200.278L92.1565 200.5L92.3052 199.702L93.0437 199.465L92.8899 198.884L93.4591 198.586L94.6746 198.803L97.0133 197.858L98.1313 197.965L98.716 198.535L99.9058 197.752L101.439 197.934L101.737 195.965L100.834 195.803L100.824 194.884L99.9058 193.167L104.07 191.298L104.747 192.091L105.978 192.055L106.45 192.47L106.029 194L106.594 195.076L107.927 194.783L108.676 195.146L109.466 193.99L110.532 194.328L110.799 192.742L112.086 192.293L112.692 191.5L113.517 191.52L113.779 189.52L115.62 187.525L114.487 186.313L117.266 185.525L118.21 184.651Z" fill="#CFE7CD" stroke="white" stroke-width="0.5"/>
<path d="M260.668 50.3735L261.663 52.7018L262.802 54.0553L267.495 56.6766L274.347 63.4442L272.977 64.2574L273.931 64.9442L273.885 66.7675L268.156 66.3887L266.633 67.7826L264.966 68.0402L264.407 67.6261L265.059 67.7624L265.407 67.2271L264.587 66.3786L264.028 68.0756L262.956 68.2372L261.238 67.6766L261.576 66.5099L263.571 66.1362L264.879 64.4846L264.371 62.2574L263.53 61.4089L263.93 60.116L265.736 60.121L265.546 63.0957L265.823 61.8584L266.366 61.6059L267.659 61.5756L267.264 62.1917L268.238 62.6715L268.469 60.3634L268.228 58.8735L267.5 58.3685L267.12 58.9291L266.756 57.1564L265.946 56.0099L263.966 56.0503L263.879 57.1766L264.725 57.9644L264.5 58.6261L264.151 58.3483L264.356 57.6008L263.623 58.8079L262.33 59.4846L262.105 58.7422L262.971 57.3988L262.212 56.8786L260.34 58.4796L259.345 58.4392L259.238 57.8281L259.802 57.3836L260.627 55.0856L260.73 53.5806L260.012 53.3483L258.904 51.9846L258.658 50.8129L259.899 50.0048L260.668 50.3735ZM238.492 42.6463L238.164 42.9644L237.902 42.4038L238.313 42.2069L238.492 42.6463ZM251.437 42.1816L251.345 42.52L251.16 42.1665L251.955 41.2473L252.083 41.7473L251.437 42.1816ZM224.542 35.9846L225.368 36.7119L223.614 36.6564L224.091 35.8887L224.542 35.9846ZM232.487 35.2119L233.015 35.4998L231.733 35.6917L231.887 35.1968L232.487 35.2119ZM235.943 34.924L233.333 35.626L234.225 34.9947L235.292 34.9493L235.8 34.2473L235.943 34.924ZM218.896 33.0503L218.419 33.5099L219.947 34.6058L223.373 35.2271L231.492 35.0604L231.81 36.0553L230.163 36.7776L228.471 36.3988L227.773 37.0907L227.23 36.6766L225.609 36.7018L225.101 35.8129L224.07 35.8382L223.27 37.0907L222.322 36.6816L222.373 36.1513L221.629 37.1715L220.368 37.3634L221.065 38.0351L220.85 38.5301L220.665 38.1159L219.603 38.1058L218.706 38.621L218.532 38.9846L219.05 39.5048L219.665 38.7624L220.075 39.1159L221.793 39.0553L223.332 38.1463L223.347 37.1109L224.629 36.9392L224.86 37.3937L223.978 37.6109L224.173 38.3735L223.635 39.1766L223.978 39.217L224.419 37.6412L224.881 37.6361L225.05 39.1109L225.568 39.1968L225.871 38.5099L226.609 39.1462L227.24 37.7927L228.066 40.6564L230.333 39.3382L230.845 37.52L231.728 36.8432L233.825 36.1361L234.543 35.4594L235.21 35.5957L235.082 37.7372L235.805 38.6311L236.81 38.5856L237.266 39.3331L236.707 40.5553L237.107 41.9897L237.99 43.0503L237.656 44.0755L238.61 44.8281L239.651 44.3281L240.097 44.7473L238.954 45.6513L240.354 44.9341L241.292 46.3584L243.688 46.6614L244.883 49.4594L246.339 49.5755L245.339 49.8079L244.585 50.7675L246.524 49.8584L247.549 50.3836L247.083 49.5957L247.852 49.9846L247.775 50.7473L247.57 50.4947L246.647 51.2119L246.703 51.6058L247.626 50.9745L247.524 51.4897L248.252 52.02L249.519 54.7675L250.586 54.8079L249.806 53.1463L250.262 52.7018L254.653 51.7927L256.925 50.0856L257.468 50.2422L257.643 50.6109L256.971 50.8685L257.053 51.3281L258.176 52.0452L258.714 51.8382L258.868 52.924L260.443 54.1109L260.002 56.0099L259.535 56.2675L259.73 56.9341L258.535 57.9493L258.956 57.9695L259.079 58.6715L260.161 59.7321L261.458 60.3382L262.192 62.2271L263.012 62.2776L264.1 63.7574L263.71 64.4341L262.489 64.9745L261.904 66.1665L261.171 66.2321L261.192 66.8836L260.561 67.1665L260.935 68.0705L262.079 68.116L263.617 70.2372L264.192 70.0957L265.91 71.8937L270.269 73.6564L272.336 73.5402L272.875 73.9038L274.48 72.4947L275.644 73.1917L275.613 74.1715L273.947 75.6867L275.819 76.0301L276.075 76.5452L275.726 77.6412L276.178 77.9341L276.208 79.3887L277.28 80.3129L276.967 84.2927L277.593 86.3685L278.485 87.1059L279.747 94.515L280.388 95.8079L278.301 96.919L277.306 96.8533L276.788 98.2018L275.526 98.7069L275.475 99.616L273.849 99.8937L272.131 99.222L270.126 99.4745L271.177 97.5402L274.311 94.2422L274.921 92.6715L274.762 90.5099L274.208 90.1665L273.736 90.7523L272.813 90.8331L270.895 89.823L269.736 91.4543L268.597 91.3129L268.413 90.424L266.931 90.1614L264.176 90.8483L263.658 90.3483L264.125 89.1311L262.833 88.0301L262.899 86.3786L261.12 85.6564L260.145 83.4493L259.545 85.8685L261.12 86.7978L260.792 87.4442L259.581 88.0756L258.402 87.4291L257.566 87.6614L254.93 89.8079L254.699 91.5049L253.406 91.3281L252.232 92.1311L252.432 93.2574L251.965 93.9442L251.36 93.8685L251.093 94.5958L251.298 96.3836L250.657 96.0604L250.073 97.8483L249.355 98.0301L249.098 97.515L248.519 97.5351L248.58 98.2574L247.457 100.141L247.514 100.232L246.878 100.56L246.042 98.6715L245.313 98.9139L244.057 98.5099L242.267 99.8079L241.79 101.954L240.892 101.616L240.241 100.156L239.144 100.121L238.477 100.904L237.656 100.894L237.692 101.98L237.061 102.071L236.774 102.783L235.523 103.045L234.415 104.581L233.446 104.828L232.912 103.949L232.384 104.141L233.599 103.217L233.081 102.752L232.158 103.076L232.24 103.495L231.61 103.419L231.892 103.015L231.056 103.096L230.22 103.858L229.215 102.707L226.686 103.459L225.665 102.793L226.25 101.525L223.901 101.374L223.311 101L223.65 100.166L223.168 99.9089L221.332 100.439L218.711 99.3533L216.09 100.131L215.531 98.7624L214.403 98.2422L214.382 97.3836L211.695 95.8836L209.997 96.1109L209.085 94.2271L207.695 94.5301L207.633 95.0756L207.095 95.2624L206.505 94.0958L205.207 94.9998L204.243 94.8584L204.166 93.7372L203.053 93.5049L203.484 94.6614L202.084 95.5604L202.269 97.3685L201.34 97.8483L200.663 97.52L199.853 99.0049L198.002 98.6564L196.95 100.172L194.868 99.9291L195.981 100.838L195.576 101.454L194.201 101.318L192.734 101.833L192.637 101.06L190.652 100.399L189.324 100.656L188.031 102.055L186.857 102.293L187.375 104.666L186.831 105.444L187.026 106.141L186.236 106.823L185.293 107.076L184.252 106.742L183.975 106.02L183.241 106.303L182.605 105.98L181.826 106.06L181.682 107.576L177.569 106.975L176.205 105.813L174.846 106.202L174.533 105.081L175.266 103.858L171.763 102.065L169.748 98.5453L169.168 98.4745L168.435 95.6362L167.214 95.5857L166.173 94.8331L163.47 97.1917L161.003 95.9139L161.106 95.3281L160.347 95.1109L159.034 93.6412L155.624 93.9846L156.306 93.0099L156.865 89.1564L157.537 88.7826L158.814 89.0705L159.126 87.8584L160.906 87.6008L161.911 86.121L163.147 85.9543L162.804 85.5705L163.434 84.3988L163.06 82.6463L163.593 82.5553L163.973 83.1917L165.942 82.8281L166.553 79.6867L167.301 78.6412L166.968 76.6665L166.25 76.3836L166.348 75.8735L163.973 75.7271L162.716 74.722L162.501 73.7776L160.973 73.0149L161.111 72.0907L161.46 70.7927L160.66 67.5958L161.409 66.4392L162.368 66.2422L162.875 65.2776L163.788 65.0907L164.963 63.5957L166.004 64.116L165.691 64.5654L165.968 65.0503L167.737 64.5301L165.383 63.7119L165.722 61.8735L170.143 59.1715L174.753 58.6816L175.677 60.1564L177.359 60.3937L176.805 61.924L177.287 63.0351L178.302 63.2473L179.841 61.7372L180.908 63.1008L182.128 63.0301L182.062 63.8079L182.959 64.2826L183.123 65.0099L183.893 65.1463L183.411 64.3533L184.58 63.4442L184.672 61.2978L184.298 61.525L184.031 61.1513L183.431 61.7473L183.4 59.5806L182.836 60.3079L182.975 61.5756L181.867 60.9291L181.492 61.3028L182.257 61.3685H181.569L181.154 60.5452L181.498 59.3836L183.503 58.2473L184.913 58.2725L184.17 60.9493L184.903 61.2826L185.226 60.323L184.923 59.8735L185.559 58.7624L186.339 58.4089L185.867 57.7624L186.862 58.0856L187.637 57.6362L187.883 56.0301L189.201 55.3028L189.319 54.5402L188.626 53.8483L186.231 56.8483L186.093 55.4594L187.108 54.2675L188.755 53.6261L191.078 51.1463L193.611 51.0301L196.54 51.5503L201.899 49.7473L205.618 49.4291L207.602 46.4745L212.51 43.2675L214.87 38.7675L216.767 36.5503L217.865 33.5099L218.896 33.0503ZM239.02 26.3937L239.349 28.0048L239.01 26.6867L239.02 27.9543L238.661 27.1564L238.872 26.5402L237.846 27.4543L238.02 29.9695L236.631 32.0705L236.364 34.3634L236.225 33.3432L237.456 28.8432L237.497 27.0553L238.277 26.3079L239.02 26.3937ZM248.344 21.8887L248.226 23.1715L247.057 23.6665L246.508 24.6412L247.016 26.5705L247.929 27.717L249.298 28.1614L254.924 27.3483L256.366 28.5099L256.376 30.323L253.006 33.3382L252.976 34.9442L254.242 37.3483L256.171 37.5402L258.017 40.0755L259.238 40.8129L258.402 41.1058L257.73 42.3988L257.879 44.419L257.422 44.7978L256.581 43.9594L257.386 44.1715L257.145 43.2776L255.786 43.7422L255.309 43.2069L257.073 42.1564L257.212 41.6008L256.15 41.4089L254.14 42.1564L256.325 40.9543L256.591 40.2321L255.273 40.4392L254.329 41.419L253.314 40.1463L252.283 40.8533L250.647 40.7574L247.98 42.9291L246.826 44.9594L246.985 44.2271L245.744 44.7422L245.918 46.02L246.154 45.0654L246.642 45.6362L247.442 45.0301L247.893 45.6109L248.119 46.4695L247.052 47.4089L243.739 45.8028L244.754 46.0907L245.154 44.2675L244.339 44.9543L244.683 45.3988L243.016 45.6311L241.416 44.2675L240.785 44.7271L240.585 43.2725L238.831 44.0806L239.328 42.8634L240.292 43.0654L237.99 41.3028L238.415 39.1766L240.657 38.9038L241.446 39.3483L242.759 38.4392L241.98 38.2271L241.769 37.4846L242.528 37.2271L241.846 37.3432L241.154 35.924L239.149 36.323L240.072 34.4897L238.308 35.2624L238.205 34.9442L239.78 32.4846L241.662 32.9038L241.513 34.0099L240.333 33.9998L240.205 34.4897L240.739 34.9644L240.964 34.2624L242.472 34.0604L241.79 33.818L243.072 33.1715L241.687 32.8634L241.78 31.4745L240.733 31.8988L239.79 31.626L238.954 29.5149L242.221 29.0301L243.667 29.7523L243.631 30.8634L244.17 31.2826L244.416 30.6968L243.939 29.1412L245.816 27.6311L246.288 27.8483L245.293 29.3887L245.847 29.5755L246.493 28.7725L247.749 30.9998L247.698 32.424L248.673 32.7927L248.955 33.6665L249.668 33.0604L250.662 33.121L251.016 30.5099L250.288 28.8382L250.883 28.8836L250.934 28.4745L250.221 28.6563L250.252 29.2624L248.78 29.2422L248.108 28.2927L247.062 28.0149L246.308 25.7523L244.949 26.9089L245.124 27.4998L242.185 28.8129L243.498 25.6159L243.529 24.0301L241.657 25.1766L242.005 26.8281L239.492 28.8432L239.615 28.2069L241.339 26.717L241.38 24.4644L242.267 23.3483L243.693 22.4139L248.344 21.8887Z" fill="#CFE7CD" stroke="white" stroke-width="0.5"/>
<path d="M31.9617 81.3335L30.0846 81.5102L28.864 82.1365L30.2128 83.0355L29.7563 83.6719L29.2999 82.9597L28.5562 83.4951L26.8125 82.086L26.9612 81.1971L29.9153 80.1719L31.9617 81.3335ZM35.0594 78.591L34.4798 78.884L35.2183 78.9294L34.5414 79.2577L34.8081 79.7274L33.967 79.7022L33.7105 78.8183L35.0594 78.591ZM32.3053 78.6365L33.09 79.0254L32.3566 79.2224L32.2386 77.9547L32.3053 78.6365ZM40.6547 76.5708L41.2086 77.0759L33.649 77.6365L40.6547 76.5708ZM49.0247 74.4698L49.4144 74.9446L47.8348 75.4193L47.5681 75.1315L47.7271 75.4597L46.886 75.6517L44.8653 75.5456L44.4294 75.9648L43.5678 75.4951L43.0959 76.0607L42.5933 75.5001L44.2294 74.6314L49.0247 74.4698ZM76.3449 74.1517L77.0783 74.5153L76.0065 74.6314L75.791 75.2476L74.673 75.2072L75.2987 74.2931L76.3449 74.1517ZM51.1787 73.9446L52.2301 74.1365L52.3839 74.9092L49.8247 74.4597L51.1787 73.9446ZM56.9689 72.6668L58.5485 72.9042L58.6819 73.4092L54.8354 73.5759L54.6251 74.586L54.5072 74.2325L54.4508 74.6517L53.266 74.5911L53.7328 72.9395L56.9689 72.6668ZM71.1445 72.5355L71.483 73.4294L70.9291 73.0759L71.1445 72.5355ZM71.2676 71.99L70.965 72.3941L70.6778 72.1668L71.0265 71.485L71.2676 71.99ZM61.7027 71.4244L64.7799 71.9799L62.8156 72.6163L60.8359 72.3436L60.4154 73.0607L59.9435 72.9193L60.4359 71.7072L61.7027 71.4244ZM67.3544 70.7022L69.8008 71.7981L66.7185 71.086L66.3697 71.8789L65.744 71.1769L67.3544 70.7022ZM83.007 68.9042L81.9967 69.0405L82.766 68.187L83.2276 68.2577L83.007 68.9042ZM93.2849 65.3991L93.2387 65.99L94.0285 66.4496L93.8182 66.985L94.408 67.485L94.1413 66.6062L95.9671 68.4244L99.988 69.1163L104.111 68.1769L103.593 66.384L110.291 66.1011L113.712 67.5304L115.359 69.7325L117.369 73.7729L119.979 76.182L121.436 80.3486L125.462 83.1617L127.324 83.6113L128.775 83.788L128.478 84.4799L128.898 85.5961L128.401 86.2022L129.129 86.7173L129.047 87.1971L129.739 87.1112L129.842 88.682L131.627 90.4698L131.611 89.9951L132.996 89.0557L133.56 90.1668L133.099 91.2224L133.381 91.3284L134.247 90.5759L135.658 91.2072L137.14 90.1971L136.801 89.5607L137.709 89.5456L137.848 88.6567L141.853 92.283H143.956L144.766 90.9951L146.228 90.2729L146.966 90.7375L148.505 90.788L152.505 93.485L155.106 94.2375L155.608 94.0052L159.019 93.6618L160.332 95.1315L161.091 95.3486L160.988 95.9345L163.455 97.2123L166.158 94.8537L167.199 95.6062L168.419 95.6567L169.153 98.4951L169.732 98.5658L171.748 102.086L175.251 103.879L174.517 105.101L174.83 106.222L176.189 105.833L177.554 106.995L177.738 108.248L179.887 110.535L183.626 109.303L185.441 110.914L186.703 110.657L188.396 111.596L187.119 112.869L187.011 113.561L185.482 113.207L184.939 115.606L185.257 116.682L183.764 117.035L182.067 118.601L179.077 120.015L178.487 120.197L178.359 119.419L176.666 119.924L176.077 118.99L173.953 118.606L172.081 118.97L172.097 118.187L169.025 118.258L168.578 118.46L168.44 119.692L166.896 121.374L165.496 121.217L164.983 121.748L164.547 121.207L161.245 121.934L160.885 125.061L162.086 126.975L162.26 128.768L163.25 128.636L163.675 129.808V129.934L166.219 134.293L168.071 133.556L167.917 134.606L166.876 135.369L166.809 136.525L169.127 140.339L168.814 140.303L168.076 140.041L167.06 140.429L166.696 142.167L169.358 145.349L169.343 145.955L169.707 145.864L169.999 146.116L171.297 146.687L171.086 147.687L170.03 148.298L168.302 148.44L170.02 150.424L170.025 150.566L169.23 151.232L169.758 152.152L170.553 152.359L170.758 153.687H171.05L171.63 154.349L171.302 154.818L169.794 155.248L169.276 155.94L169.466 157.015L170.799 157.273L170.307 159.298H170.025L168.122 160.798L166.989 160.919L166.866 161.364L167.917 161.818L167.722 163.339L165.029 163.177L163.265 163.864L159.049 163.697L157.362 164.152L157.603 164.945L156.572 165.844L155.762 165.945L155.588 165.525L154.536 166.066L155.285 167.626L155.972 167.485L156.475 168.495L157.444 168.51L156.203 169.515L156.244 170.414L157.372 171.056L157.403 171.985L156.86 173.005L155.049 174.172L154.936 174.657L155.362 174.839L154.941 176.126L155.475 178.328L156.695 178.919L156.854 180.081L158.039 181.379L158.06 183.551L159.065 184.919L158.239 185.131L158.46 185.606L157.029 186.051L157.352 186.727L156.885 186.702L157.034 187.874L157.906 188.318L157.613 189.207L155.957 188.121L154.485 189.328L153.121 189.44L152.331 188.46L150.305 187.47H150.11L148.249 187.712L148.582 188.677V188.98L147.351 191.258L146.202 191.485L145.92 192.541L144.192 193.086L143.792 193.737L143.243 193.727L142.771 192.94L142.002 193.778L142.263 194.116L141.838 195.01L140.791 195.121L141.197 195.748L139.997 195.793H139.786L138.786 195.576L138.402 196.434L137.684 195.45L137.417 196.303L136.483 196.323L136.181 197.126L133.806 198.647L133.888 197.743L132.95 196.475L132.314 196.616L132.191 197.101L131.283 196.631L131.755 198.844L130.929 198.222L130.898 197.253L130.232 196.768L129.478 196.965L129.575 198.116L128.673 197.99L127.739 198.879L126.416 199.227L127.621 201.51L128.719 200.626L128.57 202.172L127.452 202.753L125.365 201.571L124.072 201.914L124.123 201.202L123.221 201.237L121.816 200.202L120.836 199.061L122.046 199.318L122.318 198.859L121.739 198.424L122.359 197.298L124.016 197.096L124.518 196.424L123.975 194.965L124.477 193.732L122.616 191.344L123.764 190.495L123.262 189.056L123.836 189.707L124.605 189.551L123.944 188.601L124.062 187.869L125.652 188.722L126.021 188.237L124.323 186.606L123.944 185.192L122.108 185.803L121.272 184.99L120.138 185.682L119.549 185.202L119.687 184.121L118.22 184.652L115.728 184.475L116.595 181.818L116.123 180.884L116.364 180.207L115.733 179.647L118.061 177L117.446 175.929L117.913 175.106L117.646 174.556L118.523 173.535L116.733 173.823L115.307 173.339L114.097 173.904L114.723 172.495L114.625 171.111L112.42 169.859L112.517 169.243L112.086 169.071L112.784 168.445L112.445 167.727L110.579 167.682L110.286 168.369L109.558 168.121L109.204 167.318L109.866 166.505L109.379 166.131L109.881 165.652L109.209 164.475L109.143 163.258L109.825 162.662L108.537 161.197L107.855 161.344L108.681 160.046L108.512 159.515L107.727 159.01L106.399 159.248L105.706 158.965L105.753 158.53L103.855 159.232L104.193 157.339L103.009 156.101L103.665 156.369L103.922 156.071L104.204 156.727L104.911 156.677L104.655 154.556L105.214 154.743L105.994 154.167L104.686 153.197L102.604 152.495L102.809 151.934L102.363 151.642L103.024 151.323L103.424 149.207L104.091 148.965L104.378 148.207L105.409 148.51L106.701 146.818L106.609 145.965L107.507 145.106L107.537 144.167L107.086 144.172L107.091 143.46L106.573 143.025L107.958 141.293L106.737 140.192L105.199 140.046L103.917 142.313L102.768 142.677L103.04 143.626L101.593 144.475L101.414 145.232L99.9829 145.035L99.7726 145.621L98.7469 145.884L96.6082 145.394L95.2337 145.934L94.4952 145.359L93.8849 145.561L93.7977 144.298L94.2234 143.768L93.7926 143.066L93.7157 139.844L93.29 139.015L92.7156 139.157L92.0642 138.414L88.9768 140.136L87.1972 139.45L85.7765 140.49L85.6637 142.116L84.4174 143.005L83.843 142.692L82.6686 143.02L80.6992 142.263L80.7299 143.535L81.3095 143.995L81.1351 145.157L83.684 146.157L85.3047 147.333L86.1663 149.788L85.8124 151.253L86.1048 153.384L85.2637 155.061L86.115 156.147L87.6946 156.642L86.1458 158.187L84.1918 159.152L84.0789 160.5L82.9609 160.525L81.9198 159.783L80.9505 160.081L80.0889 159.707L80.1401 159.217L78.0682 160.682L77.0783 162.47L75.7295 162.344L73.9242 163.273L71.8471 162.672L70.1701 164.414L68.1545 163.616L67.0416 161.894L69.8982 160.212L71.0624 160.253L70.7855 158.359L70.8983 157.929L71.6625 157.778L71.0214 157.081L68.734 157.076L67.8417 156.404L67.5955 155.586L68.4314 154.44L68.3904 152.505L69.4213 152.313L68.5956 151.323L68.6058 150.495L70.565 150.121L69.1495 148.768L68.7648 147.202L67.2365 146.339L65.7594 146.934L64.5285 146.808L61.4514 145.328L60.6462 142.601L58.01 141.445L56.6048 143.697L57.8562 144.243L56.8305 146.333L57.1946 146.636L55.2201 147.03L52.3788 148.899L52.0608 149.869L50.712 150.111L49.9427 151.232L48.4246 151.647L47.8143 152.47L43.1985 152.344L42.1215 152.616L41.4138 153.566L40.1829 153.642L39.0084 151.97L38.9571 151.111L40.4803 147.844L40.5009 146.722L40.0085 145.349L39.2597 145.263L38.434 143.788L37.7878 141.773L36.1877 143.485L33.2951 142.738L33.3002 142.243L30.1564 142.051L28.2024 140.773L28.4332 138.955L27.6177 137.283L28.7563 137.51L29.105 136.753L30.459 136.738L28.9101 135.389L29.1306 133.97L28.6742 133.364L29.9717 132.227L33.9516 131.94L36.0082 132.788L37.2595 132.313L39.4392 133.046L39.8957 132.515L40.4444 123.667L41.1265 122.142L40.9624 121.541L44.0858 116.606L45.2089 113.177L44.6858 107.445L44.096 107.015L43.9678 106.121L44.7474 104.202L45.5269 103.965L44.9166 103.409L45.2243 102.879L44.9474 100.515L45.5731 99.5203L46.127 96.4042L48.1887 96.3082L38.5674 95.1618L37.9929 93.6516L38.4289 92.9345L38.9161 87.5456L39.6751 86.3688L39.1828 84.8284L39.9008 86.1314L40.9932 86.1365L41.3419 86.687L41.7522 86.1517L40.029 86.1213L39.4443 84.6921L40.2906 85.6921L40.6034 84.9193L41.5163 86.0506L41.383 85.3739L42.1266 85.3183L42.8036 84.4143L41.9317 84.086L41.0342 82.4092L42.9575 80.5153L43.178 79.7123L43.1318 80.086L46.1013 77.485L49.9119 76.5708L50.4196 76.9042L53.8302 76.783L55.2713 77.4446L61.1026 75.6921L61.1129 74.8133L61.1231 75.8789L64.4824 75.2931L65.4055 74.0102L64.5952 75.485L67.9288 74.8638L71.6779 75.4244L71.483 76.8082L72.2369 79.0001L73.1754 78.7072L74.0012 79.5102L74.3807 79.0102L74.6217 79.3082L74.0319 79.5607L74.5499 80.3688L74.9961 80.1769L74.5961 80.4446L74.8423 81.2981L76.3603 84.3486L75.9808 85.0254L76.4167 84.7729L75.8423 85.9395L73.8883 86.6668L72.7754 86.4193L72.8677 87.985L74.0217 89.6567L75.2064 89.2173L75.7603 89.4799L77.3707 91.8587L78.8067 92.2072L79.5247 91.788L81.0274 89.0052L80.93 85.5658L78.222 85.6213L78.7144 82.2981L79.9709 80.7022L80.7966 80.3486L81.8069 80.6416L83.3045 82.687L85.9458 83.8486L87.2331 83.9749L87.7254 83.5304L87.71 84.0607L88.7716 84.6466L88.9563 85.4294L88.6845 85.6062L89.5563 87.4446L89.9564 87.0961L90.6282 87.5658L91.4693 86.9395L92.054 85.9143L91.6693 85.1618L91.8796 83.7173L91.3308 83.6163L90.977 82.6567L92.3668 80.7577H91.8027L91.8899 81.1921L90.9103 81.0405L90.1666 81.6668L87.8075 80.9799L86.5766 78.2931L86.5356 76.1668L88.587 71.1011L88.6845 69.6062L90.777 66.0203L93.2849 65.3991ZM90.9924 104.601L91.3565 106.131L92.6386 108.035L92.5207 108.692L93.9772 109.48L93.808 110.621L94.2285 111.434L95.4491 111.485L95.9877 110.692L96.1672 111.44L97.6237 112.46L99.0341 112.384L99.0648 111.394L99.988 112.793L101.316 112.798L101.393 112.248L102.824 111.071L102.301 110.344L102.214 109.01L103.106 108.339L102.239 108.207L101.747 107.323L102.896 106.773L101.634 105.394L100.624 106.45L98.9828 106.505L98.9264 106.339L98.3058 105.591L98.2084 105.121L97.875 104.753L95.0388 104.773L94.567 103.894L93.8182 104.071L93.6285 103.626L92.9002 104.162L91.1308 104.333L90.7154 103.318L89.6999 103.298L90.3308 102.197L89.6589 101.929L88.8588 102.374L87.1613 101.344L86.7612 101.328L86.5048 101.515L87.2997 102.793L87.4382 102.965L90.9924 104.601ZM87.2074 63.4648L87.669 64.1012L86.6843 64.2779L86.8279 63.4092L87.2074 63.4648ZM85.5662 61.6466L85.9406 61.7981L84.7457 62.7375L84.3508 62.5506L84.9918 61.5254L85.5662 61.6466Z" fill="#CFE7CD" stroke="white" stroke-width="0.5"/>
<path d="M40.1572 153.641L41.3881 153.565L42.0958 152.616L43.1728 152.343L47.7886 152.469L48.3989 151.646L49.917 151.232L50.6914 150.106L52.0351 149.868L52.3582 148.894L55.1995 147.03L57.174 146.631L56.8048 146.328L57.8305 144.237L56.5791 143.692L57.9844 141.439L60.6153 142.596L61.4205 145.323L64.4977 146.803L65.7286 146.929L67.2057 146.333L68.734 147.197L69.1186 148.762L70.5341 150.116L68.575 150.49L68.5647 151.323L69.3905 152.313L68.3596 152.505L68.4006 154.444L67.5595 155.591L67.8108 156.409L68.7032 157.076L70.9906 157.081L71.6317 157.778L70.8675 157.929L70.7547 158.358L71.0316 160.252L69.8674 160.212L67.0108 161.894L68.1237 163.621L70.1392 164.419L71.8163 162.677L73.8985 163.272L75.7038 162.343L77.0527 162.469L78.0425 160.682L80.1144 159.217L80.058 159.712L80.9196 160.081L81.889 159.783L82.9352 160.525L84.0532 160.5L84.1609 159.151L86.115 158.187L87.6587 156.641L86.0791 156.151L85.2277 155.065L86.0688 153.389L85.7765 151.257L86.1355 149.793L85.2739 147.338L83.6532 146.161L81.1043 145.161L81.2786 143.995L80.6991 143.54L80.6683 142.262L82.6377 143.02L83.8173 142.697L84.3917 143.005L85.638 142.116L85.7457 140.49L87.1663 139.454L88.9511 140.136L92.0385 138.419L92.6899 139.161L93.2694 139.02L93.6951 139.848L93.772 143.07L94.208 143.772L93.7823 144.303L93.8643 145.565L94.4746 145.363L95.2132 145.939L96.5876 145.399L98.7263 145.889L99.752 145.621L99.9572 145.04L101.388 145.232L101.568 144.474L103.014 143.626L102.742 142.682L103.891 142.318L105.173 140.05L106.712 140.197L107.932 141.298L106.547 143.035L107.071 143.464L107.065 144.177L107.517 144.171L107.486 145.106L106.589 145.964L106.686 146.818L105.394 148.51L104.358 148.207L104.07 148.964L103.404 149.207L103.004 151.323L102.342 151.641L102.788 151.934L102.583 152.495L104.665 153.202L105.973 154.171L105.188 154.747L104.629 154.555L104.886 156.682L104.178 156.732L103.901 156.076L103.645 156.379L102.988 156.111L104.173 157.343L103.834 159.237L105.737 158.54L105.691 158.975L106.383 159.257L107.712 159.02L108.496 159.525L108.666 160.055L107.845 161.353L108.522 161.207L109.809 162.666L109.127 163.262L109.194 164.48L109.866 165.656L109.368 166.136L109.855 166.51L109.189 167.323L109.543 168.126L110.271 168.373L110.568 167.682L112.435 167.732L112.769 168.449L112.071 169.076L112.502 169.247L112.404 169.863L114.61 171.116L114.707 172.5L114.076 173.909L115.292 173.343L116.718 173.828L118.507 173.54L117.63 174.56L117.897 175.111L117.43 175.929L118.051 177L115.717 179.646L116.348 180.207L116.112 180.889L116.584 181.818L115.717 184.475L118.21 184.651L117.266 185.525L114.487 186.313L115.62 187.525L113.779 189.52L113.517 191.52L112.692 191.5L112.086 192.293L110.799 192.742L110.532 194.328L109.466 193.99L108.676 195.146L107.927 194.783L106.594 195.076L106.029 194L106.45 192.469L105.978 192.055L104.747 192.091L104.07 191.298L99.9059 193.166L100.824 194.884L100.834 195.803L101.737 195.964L101.439 197.934L99.9059 197.752L98.716 198.535L98.1314 197.964L97.0133 197.858L94.6747 198.803L93.4592 198.586L92.8899 198.884L93.0438 199.464L92.3052 199.702L92.1565 200.5L91.5872 200.278L91.0385 200.671L88.9819 203.687L90.2384 205.237L93.3874 203.752L94.3669 203.874L94.8388 204.454L94.5516 205.03L94.9978 206.687L95.8542 207.197L95.2029 207.717L95.5568 208.828L93.5258 210.863L93.5617 211.581H93.6848L94.3157 212.267L93.1361 212.368L92.2386 213.045L89.0075 212.616L88.0228 212.919L87.192 213.793L87.992 214.636L87.2792 215.803L87.7356 215.646L88.3305 216.889L86.2893 219.086L86.397 219.454L85.7508 219.621L85.479 220.884L85.8072 222.015L84.8995 222.076L82.4993 224.959H80.7812L80.2939 223.904L79.4888 223.959L75.3499 228.53L75.1448 228.596L75.0166 229.116L76.2423 231.404L74.8422 233.868L73.319 232.798L72.7189 233.353L72.0932 233.262L72.0214 231.712L69.7238 229.303L70.0264 226.798L69.7341 225.727L69.3597 225.348L68.0108 225.762L66.9287 224.242L65.1439 223.858L65.8671 221.54L63.99 220.803L63.113 221.742L62.1283 222.04L62.9284 222.914L62.595 224.656L63.0104 225.767L61.9129 225.459L61.0513 226.671L59.6768 226.99L60.3076 227.601L60.0307 228.99L59.4973 229.651L57.6971 229.793L57.4407 231.116L56.0662 230.773L55.1072 231.242L55.1021 231.656L52.2762 232.616L50.3324 232.187L49.7683 233.247L50.2504 234.076L49.6657 235.05L49.8401 235.636L49.0503 236.202L45.0448 237.01L44.6653 235.737L44.2601 237.005L43.7062 237.56L43.1062 237.475L42.8856 238.177L41.8548 237.576L41.0085 238.904L39.9008 237.884L38.0032 239.98L37.2031 240.394L35.7927 240.192L35.8132 241.53L34.2233 241.848L34.6849 242.348L34.4131 242.884L34.9465 243.086L34.8131 244.808L33.4233 245.611L31.9565 244.636L31.5565 243.641L29.7358 244.591L30.423 245.313L29.6845 246.227L30.5974 246.51L30.9872 247.217L30.5615 248.641L31.618 249.858L31.5103 250.278L30.8436 250.106L28.3254 251.505L27.2689 249.778L26.2637 251.101L25.6995 250.586L25.8585 249.616L25.1457 249.56L25.0841 248.919L21.971 250.318L21.212 251.399L20.1914 251.495L20.4222 250.262L19.9452 249.742L19.4682 250.187L18.8938 248.853L18.0374 249.101L18.3194 250.237L18.6938 250.166L18.74 251.374L19.2836 251.682L19.3041 252.177L18.6271 252.202L18.4528 251.091L16.5706 249.303L17.7194 246.464L17.5758 245.54L16.55 245.141L16.8834 243.803L14.2575 242.969L12.8164 243.469L12.2266 242.177L11.5906 241.889L11.8368 241.368L11.2573 241.106L11.1855 240.333L12.7907 238.687L13.3857 238.742L14.2165 236.848L11.8984 236.52L11.2214 236.853L11.447 236.555L10.9598 236.015L11.4214 235.596L9.38533 232.121L6.92358 231.687L6.69792 232.151L6.79024 230.868L5.94401 230.005L6.26712 229.389L4.54902 228.232L4.9029 227.56L5.56449 227.939L6.22609 227.283L6.0312 225.717L7.23643 225.207L7.83135 225.682L8.3237 224.328L7.86725 223.328L8.51346 221.874L7.19027 221.843L6.04658 221.212L5.57475 220.045L6.22609 218.692L4.33362 218.934L3.89255 218.48L2.06163 219.151L2.29242 217.762L1.45645 216.929L1 215.424L2.57449 214.485L3.33353 216.081L4.0618 216.045L4.73365 214.177L5.74912 213.197L6.83127 212.747L8.39037 211L11.1086 209.838L9.97513 209.035L11.3599 208.363L10.8162 207.944L8.67245 209.187L8.09291 209.081L7.61595 206.671L8.20574 206.459L7.74417 205.485L9.42123 203.874L10.9137 200.899L11.7035 200.732L12.7856 199.328L12.3958 198.06L12.7805 197.353L12.1343 197.384L12.7087 193.671L12.3805 191.586L10.647 188.975L8.37499 186.747L9.2007 184.141L6.45175 183.212L6.25686 181.469L6.83127 180.99L5.17984 179.889L3.93358 179.858L3.94897 179.222L5.05676 178.459L5.09779 177.565L4.55928 177.399L4.65672 176.778L3.64638 176.015L4.05154 175.767L3.61561 175.439L4.14386 174.793L5.83118 174.848L7.50312 173.328L8.65706 174.136L10.8316 174.565L10.7701 173.535L9.9341 172.252L8.85195 171.894L9.29302 171.399L10.9342 171.434L12.3394 173.116L14.5653 172.848L15.191 173.146L15.4064 174.096L16.986 174.166L17.2988 174.818L18.5605 175.288L18.8323 173.959L18.0784 173.419L18.2271 172.828L19.5349 173.641L20.1145 173.303L20.7607 173.919L23.1916 172.323L27.7766 170.596L29.3358 171.555L31.1667 169.98L31.5206 168.444L32.4591 168.156L32.5412 166.985L30.023 164.823L27.8587 164.227L28.0792 162.606L29.4794 162.358L30.2692 160.091L33.3515 159.985L35.0388 157.076L36.4594 156.808L37.5723 154.485L39.3007 154.419L40.1572 153.641Z" fill="#CFE7CD" stroke="white" stroke-width="0.5"/>
<path d="M18.6272 252.202L19.3042 252.177L19.2837 251.682L18.74 251.374L18.6939 250.167L18.3195 250.238L18.0374 249.101L18.8939 248.854L19.4683 250.187L19.9453 249.743L20.4222 250.263L20.1914 251.495L21.212 251.399L21.9711 250.318L25.0842 248.919L25.1457 249.561L25.8586 249.616L25.6996 250.586L26.2637 251.101L27.269 249.778L28.3255 251.505L30.8436 250.106L31.5103 250.278L31.618 249.859L30.5615 248.642L30.9872 247.217L30.5974 246.51L29.6845 246.227L30.4231 245.313L29.7358 244.591L31.5565 243.642L31.9565 244.637L33.4233 245.611L34.8132 244.808L34.9465 243.086L34.4132 242.884L34.685 242.349L34.2234 241.849L35.8133 241.531L35.7928 240.192L37.2031 240.394L38.0032 239.98L39.9008 237.884L41.0086 238.904L41.8548 237.576L42.8857 238.177L43.1062 237.475L43.7063 237.561L44.2602 237.005L44.6653 235.738L45.0448 237.01L49.0503 236.202L49.8401 235.637L49.6657 235.051L50.2504 234.076L49.7683 233.248L50.3325 232.187L52.2762 232.616L55.1021 231.657L55.1072 231.243L56.0663 230.773L57.4408 231.116L57.6972 229.793L59.4974 229.652L60.0307 228.99L60.3077 227.601L59.6769 226.99L61.0513 226.672L61.9129 225.46L63.0105 225.768L62.5951 224.657L62.9284 222.914L62.1284 222.041L63.113 221.743L63.99 220.803L65.8671 221.541L65.144 223.859L66.9288 224.243L68.0109 225.763L69.3597 225.349L69.7341 225.727L70.0265 226.798L69.7239 229.303L72.0215 231.712L72.0933 233.263L72.719 233.354L73.319 232.798L74.8423 233.869L74.3602 235.177L75.35 236.561L74.8987 237.702L75.7346 238.233L75.2064 240.672L74.1499 241.551L73.0985 241.273L72.201 240.339L70.6214 241.99L70.0675 243.884L71.1291 245.606L69.9752 246.384L70.4009 246.566L70.3085 247.152L69.6008 247.748L70.3188 248.328L71.5086 248.283L71.3035 249.081L72.201 249.031L72.2933 249.556L72.7446 249.596L73.2934 250.935L73.1447 251.717L74.1191 251.995L74.1448 252.844L74.6833 253.374L74.2679 255.313L73.4062 255.258L73.1857 254.712L71.9753 254.783L71.5035 255.46L72.3754 256.303L72.5087 256.48L71.8523 257.546L71.1804 257.45L70.3906 256.45L70.3188 256.955L69.1546 257.374L69.0213 257.859L67.8417 258.177L67.8365 258.657L66.9544 259.263L66.9954 259.929L68.5699 261.147L68.2007 261.647L68.4879 263.222L67.5647 262.283L66.98 262.637L65.9389 262.005L65.2568 263.44L65.4876 264.167L64.3439 264.182L63.3797 265.48L65.98 267.712L66.4415 269.339L67.0365 269.763L69.77 269.46L72.0933 268.172L76.7911 266.601L78.7708 266.995L81.3095 269.531L82.3865 272.46L82.0531 274.46L83.3558 275.536L83.1866 277.177L84.6175 279.879L86.1868 279.854L86.433 280.197L85.0842 282.192L82.5096 283.677L83.3199 286.935L84.5764 289.051L84.3456 290.546L85.9099 294.642L85.2329 295.657L87.351 296.409L86.951 298.071L85.8842 299.056L86.2432 299.44L87.0997 298.707L87.0382 299.783L85.4842 301.834L86.7305 303.298L83.5302 306.263L83.3558 307.051L84.002 307.015L82.7917 309.485L82.4942 312.834L80.971 315.132L80.4889 317.086L80.0581 318L78.3656 319.429L78.14 318.919L77.2989 319.349L77.1348 318.849L75.9654 318.975L73.8011 318.258L72.4472 317.071L69.9957 316.414L68.5956 314.93L68.1391 315.722L67.1134 315.384L66.3903 316.126L64.0311 314.551L63.1284 315.495L62.1078 315.637L62.0104 315.005L61.6257 315.273L60.7898 314.924L60.8462 315.359L60.0872 315.591L58.7691 315.101L58.7127 314.207L57.6869 313.707L56.5022 313.864L55.3329 313.02L54.4149 311.379L54.2149 309.52L52.307 309.733L52.5429 308.788L49.994 309.399L49.9324 310.041L47.7733 307.712L48.0092 306.839L47.5527 306.106L48.1733 305.142L48.6964 305.626L48.7169 305.005L49.3324 304.566L49.0811 304.106L49.9581 304.137L50.6915 303.359L51.1941 299.626L50.076 299.899L49.6811 299.142L47.5835 298.667L47.5374 297.313L46.2962 296.48L46.1578 295.864L47.445 295.288L48.0554 294.429L47.2091 293.935L47.4809 292.308L48.1733 292.025L47.9938 291.5L47.0758 291.349L46.8347 289.02L45.091 289.945L45.0448 289.435L44.1678 289.424L43.7781 288.97L43.7011 288.323L42.0805 288.475L41.3779 287.945L40.9881 288.253L40.0598 286.778L39.0033 286.263L37.6032 287.192L37.7929 286.5L36.5262 286.955L36.1466 286.515L35.7825 287.586L34.6645 287.419L34.1003 288.152L33.6387 287.839L32.7156 289.061L31.9104 288.672L29.8384 290.344L28.6127 290.531L27.9562 291.419L27.7716 290.823L27.033 291.051L26.6638 290.692L26.5407 291.283L26.0278 291.152L25.2124 291.798L25.2534 292.268L24.3867 292.142L23.7969 291.172L22.3301 291.844L20.8428 291.01L20.1812 291.293L19.4375 290.783L19.0118 291.051L17.7963 290.652L17.0681 289.626L17.8528 289.359L17.704 288.561L19.1503 287.278L19.8068 285.495L19.4529 284.828L21.9506 282.576L21.6223 281.95L22.2788 282.132L21.7505 280.834L22.3249 280.162L21.9352 278.768L22.6583 277.823L22.1352 278.227L20.7966 277.182L19.458 277.773L18.3861 277.238L17.2168 275.783L15.9295 276.404L15.5859 274.894L15.0987 275.015L13.0318 273.359L12.9498 272.404L12.519 272.167L12.678 270.854L12.1189 270.601L11.8933 270.95L11.6317 269.94L11.1804 270.672L10.9137 269.066L9.92388 268.46L10.3752 267.965L9.91875 267.682L10.2213 267.197L9.71874 266.849L9.51359 265.364L9.02124 265.369L9.68283 264.712L9.15971 264.677L9.37512 263.783L9.80079 263.717L9.54949 262.399L10.447 261.233L9.76489 260.647L10.0316 259.909L10.2778 259.44L10.6162 259.733L11.6522 259.197L10.8676 257.283L11.1804 256.561L11.8523 256.445L12.4472 255.465L14.5602 254.97L14.9551 254.445L14.7397 253.621L15.5603 252.313L16.3296 252.212L17.2168 253.126L17.2578 252.606L18.6272 252.202Z" fill="#CFE7CD" stroke="white" stroke-width="0.5"/>
<path d="M17.7964 290.652L19.0119 291.051L19.4376 290.783L20.1812 291.293L20.8428 291.01L22.3301 291.843L23.7969 291.172L24.3867 292.141L25.2534 292.268L25.2124 291.798L26.0279 291.152L26.5407 291.283L26.6638 290.692L27.0331 291.051L27.7716 290.823L27.9562 291.419L28.6127 290.53L29.8384 290.344L31.9104 288.672L32.7156 289.061L33.6388 287.838L34.1004 288.152L34.6645 287.419L35.7825 287.586L36.1467 286.515L36.5262 286.955L37.793 286.5L37.6032 287.192L39.0033 286.263L40.0598 286.778L40.9881 288.253L41.3779 287.945L42.0805 288.475L43.7012 288.323L43.7781 288.97L44.1679 289.424L45.0449 289.434L45.091 289.945L46.8348 289.02L47.0758 291.349L47.9938 291.5L48.1734 292.025L47.481 292.308L47.2092 293.934L48.0554 294.429L47.4451 295.288L46.1578 295.864L46.2963 296.48L47.5374 297.313L47.5836 298.667L49.6812 299.141L50.0761 299.899L51.1941 299.626L50.6915 303.359L49.9581 304.136L49.0811 304.106L49.3324 304.566L48.717 305.005L48.6965 305.626L48.1734 305.141L47.5528 306.106L48.0092 306.838L47.7733 307.712L49.9325 310.04L49.9171 310.778L48.7272 310.763L47.6707 312.167L46.1014 311.429L44.5218 312.152L44.0756 311.409L43.1986 311.894L42.1677 310.833L41.4651 310.97L41.7523 310.328L41.2651 310.167L40.706 310.52L40.983 311.359L39.8803 312.248L38.9572 309.47L39.1828 308.429L38.47 308.586L37.2032 307.49L36.7724 307.833L35.6543 306.823L34.5876 307.515L33.5208 306.844L32.7925 307.338L33.5772 308.909L32.7105 310.268L30.8898 309.505L29.5461 309.722L28.664 308.591L29.3051 307.672L29.0589 307.066L28.1306 307.182L27.9255 305.525L26.9869 305.076L27.2895 304.035L25.4586 302.975L24.6072 302.01L24.7149 301.313L23.92 300.737L23.8225 300.293L24.6124 300.611L25.0227 299.813L24.4431 299.667L24.5303 298.838L23.0276 298.01L23.4328 296.889L19.3965 294.359L18.2375 294.955L17.3861 294.636L17.0322 291.682L17.7964 290.652Z" fill="#CFE7CD" stroke="white" stroke-width="0.5"/>
<path d="M210.777 213.303L210.52 212.798L209.069 212.576L208.638 211.652L209.279 211.591L209.356 211.137L207.931 210.621L208.479 208.525L207.228 208.591L207.218 208.172L207.659 208.182L208.202 206.894L208.064 205.717L207.736 204.677L206.936 204.263L207.151 203.258L206.341 201.429L207.951 200.995L207.9 198.828L207.177 198.182L207.618 197.97L207.248 196.844L207.761 196.248L207.479 195.652L206.674 195.662L206.387 194.147L207.212 193.884L207.33 193.162L208.279 192.667L207.772 190.97L209.249 189.495L209.131 188.935L211.038 189.051L212.721 188.076L212.541 187.773L215.408 187.975L215.977 186.571L216.547 186.97L217.239 186.743L217.398 187.313L218.07 186.606L219.126 186.985L220.465 185.748L220.937 186.111L221.968 185.692L221.424 186.5L223.198 185.52L224.117 183.702L226.732 184.596L229.127 182.657L229.738 183.182L229.835 184.111L230.671 183.611L230.902 184.601L231.892 184.475L232.338 185.066L232.543 184.48L233.235 184.424L233.056 183.712L233.374 183.778L233.569 183.834L233.558 183.465L234.625 183.712L235.005 185.091L235.964 184.642L237.071 186.571L238.22 185.98L239.497 187.369L238.928 188.647L240.287 189.253L241.01 190.965L240.81 192.596L240.261 192.637L240.19 193.505L240.867 194.753L239.954 195.914L240.39 196.131L240.544 195.49L241.241 197.551L242.954 198.137L242.754 197.339L243.569 197.429L243.59 196.773L244.975 196.015L244.8 195.46L246.59 196.051L246.508 195.49L247.277 194.601L248.195 195.586L247.97 196.202L248.801 195.662L249.683 196.374L249.349 196.717L251.206 197.238L251.319 198.258L251.775 198.283L251.98 198.909L252.806 198.111L253.427 198.182L253.693 198.945L255.729 198.909L256.017 198.541L258.443 199.298L259.284 198.859L259.504 199.268L259.827 198.859L261.017 198.909L261.515 198.137L263.848 198.379L265.576 197.515L265.987 197.677L265.956 198.551L266.869 198.722L267.059 197.611L267.818 197.53L267.454 197.096L268.413 196.394L268.141 195.536L268.956 195.03L268.023 193.45L269.808 193.389L269.361 192.586L270.023 192.313L270.377 191.126L271.515 191.005L271.162 190.551L271.428 189.97L273.916 190.172L274.967 190.778L275.757 190.541L277.526 191.369L277.547 191.611L277.824 192.03L278.116 191.248L279.624 190.041L281.552 189.985L281.778 189.243L284.511 189.152L284.722 188.455L285.481 188.061L286.419 188.505L287.04 189.621L289.132 189.47L289.922 188.167L289.707 187.167L290.794 187.975L290.179 189L290.989 190.849L292.897 191.258L294.774 192.707L296.959 193.056L298.02 193.768L298.728 195.187L298.261 196.828L298.564 198.389L299.031 198.677L298.892 200.318L301 203.874L299.374 209.616L299.487 211.642L298.979 211.894L298.887 213.95L297.313 217.909L296.861 218.152L296.933 219.197L296.477 219.364L296.159 220.995L293.625 223.854L293.866 224.556L292.948 227.005L291.979 227.081L291.23 226.586L290.512 226.935L290.04 225.96L289.445 226.111L287.173 225.106L287.737 223.101L288.25 222.697L288.168 221.369L285.983 222.288L285.409 222.03L286.486 218.581L285.363 217.379L284.393 217.697L284.281 217.025L283.209 216.748L283.306 215.505L283.009 216.687L281.773 216.036L280.311 216.919L279.501 216.5L279.393 215.904L278.757 215.576L277.988 215.904L276.813 215.066L276.331 215.879H275.87L276.275 216.485L276.111 217.142L275.444 217.45L275.418 218.525L276.208 219.061L277.557 218.657L277.665 219.238L276.839 219.626L277.29 219.924L277.085 220.192L279.906 221.137L279.573 223.076L278.362 222.889L278.337 223.354L276.849 223.798L275.639 223.232L274.552 223.621L274.244 225.005L269.818 226.738L269.438 227.45L267.895 227.854L266.582 227.056L265.428 227.667L264.869 228.546L263.658 228.399L263.222 229.637L263.592 230.869L262.407 230.965L262.227 231.733L259.648 231.318L258.448 231.758L257.996 231.419L257.355 232.253L255.96 231.525L253.934 232.616L252.488 232.384L251.442 232.849L251.98 234.283L251.016 235.48L251.386 236.202L250.452 236.652L249.488 238.02L247.806 237.359L246.995 235.839L246.39 235.662L246.544 236.803L244.862 237.823L244.78 239.212L243.734 239.46L243.328 238.576L242.308 238.586L240.61 243.061L238.743 242.894L238.533 242.298L237.025 243.248L235.271 242.738L234.907 245.834L233.584 247.318L232.322 247.662L232.497 248.126L228.312 245.273L228.014 246.707L227.522 245.803L225.568 246.652L224.624 248.424L223.527 247.44L218.285 248.445L217.454 249.758L217.542 250.834L216.859 250.561L215.977 251.232L215.639 252.182L214.587 252.222L214.582 253.682L213.659 254.086L213.064 255.217L213.3 256.243L212.346 256.258L212.485 257.404L212.1 257.995L212.603 258.738L212.1 259.283L212.541 259.717L211.008 259.515L210.515 258.52L211.131 257.303L209.361 256.046L209.551 255.409L210.228 255.813L209.864 254.793L208.095 254.702L208.059 253.015L207.561 252.202L204.833 252.409L204.535 251.631L203.084 251.712L203.048 252.025L201.448 250.586L200.797 250.768L200.986 248.869L200.376 248.293L199.884 248.515L200.017 247.889L199.037 247.106L199.186 246.657L198.253 246.48L198.114 245.844L199.314 245.162L199.884 245.581L199.54 244.712L200.417 243.909L199.325 242.798L199.309 242.066L197.889 242.369L197.299 241.339L197.781 240.601L199.217 240.389L199.114 238.96L201.109 237.722L200.961 237.121L201.586 236.47L202.186 236.95L201.633 237.45L202.751 238.525L202.151 239.834L202.479 240.702L203.381 240.672L204.038 240.424L204.156 239.389L204.879 239.273L205.607 239.839L206.869 239.364L206.797 238.99L205.982 239.025L206.428 236.697L207.761 237.52L208.069 236.243L210.151 236.672L210.203 235.945L211.895 234.98L211.998 233.924L210.09 233.409L209.828 232.288L210.459 231.707L210.218 231.227L208.915 231.182L209.331 229.763L210.254 230.01L210.982 228.914L210.915 228.515L209.828 228.596L209.72 227L210.649 227.53L211.003 226.788L211.351 227.222L211.244 226.525L211.541 227.066L212.875 226.869L212.91 226.142L213.757 225.313L214.7 225.576L215.126 225.096L215.249 226.046L215.936 225.864L216.049 224.768L217.326 223.243L218.208 223.339L218.095 222.859L218.542 222.601L219.101 222.965L221.829 222.485L222.414 222.828L222.911 221.98L221.921 220.96L221.393 218.066L220.342 218.596L218.752 217.924L219.219 217.576L219.152 216.652L218.357 216.525L218.106 217.015L217.978 214.677L217.419 214.515L216.87 214.53L216.454 213.637L214.926 214.081L214.393 213.586L213.351 213.808L213.192 213.025L212.541 212.631L210.777 213.303Z" fill="#CFE7CD" stroke="white" stroke-width="0.5"/>
<path d="M188.411 111.581L189.703 111.459L189.252 112.884L190.908 113.071L191.473 114.717L193.027 114.096L194.463 115.616L196.36 116.055L196.499 116.672L195.642 117.712L196.037 118.338L197.186 118.353L197.914 119.136L200.838 120.151L202.253 119.379L205.166 120.101L205.556 119.177L205.617 121.328L207.874 119.985L208.084 120.52L209.161 120.869L209.951 123.864L209.69 124.672L208.731 124.763L208.356 126.308L208.787 127.076L208.028 128.465L208.423 128.364L208.315 128.823L208.9 129.222L208.731 130.005L209.295 130.429L209.095 132.677L209.033 133.182L208.151 133.732L207.084 133.394L207.418 136.081L206.238 138.429L207.135 137.949L207.746 138.308L206.997 139.298L207.602 140.247L208.674 139.985L209.469 138.904L210.367 140.025L210.033 140.293L210.397 140.768L212.346 140.227L211.638 140.677L212.362 141.237L210.972 143.727L211.228 144.086L210.485 144.56L211.356 144.98L211.11 146.066L211.5 146.495L210.782 147.146L211.592 148.156L210.587 149.737L209.572 153.111L210.443 153.747L210.038 154.01L211.264 154.364L209.628 155.227L209.602 156.661L208.961 156.646L208.679 157.454L210.095 159.374L210.541 160.838L211.777 161.475L213.274 163.798L214.254 164.03L215.762 165.424L216.259 165.384L216.623 164.48L217.213 164.54L217.583 165.56L219.065 166.141L219.193 167.02L221.562 167.202L221.629 166.697L222.614 166.56L222.988 165.606L223.486 165.646L226.24 166.965L227.035 168.212L229.163 167.944L229.404 169.651L230.512 169.707L230.609 170.06L231.604 169.439L232.866 169.651L232.799 170.303L233.42 170.409L233.363 171.515L235.733 171.49L235.528 172.52L235.169 172.515L235.599 172.99L236.907 173.151L238.169 172.434L238.784 172.54L239.225 173.525L238.225 173.757L239.564 176.364L239.077 178.318L239.625 179.202L239.241 179.52L240.313 180.995L239.241 181.293L239.502 182.237L239.087 182.651L235.964 184.641L235.005 185.091L234.625 183.712L233.558 183.465L233.569 183.833L233.374 183.778L233.056 183.712L233.235 184.424L232.543 184.48L232.338 185.066L231.891 184.475L230.902 184.601L230.671 183.611L229.835 184.111L229.737 183.182L229.127 182.656L226.732 184.596L224.116 183.702L223.198 185.52L221.424 186.5L221.968 185.692L220.937 186.111L220.465 185.747L219.126 186.985L218.07 186.606L217.398 187.313L217.239 186.742L216.547 186.97L215.977 186.571L215.408 187.975L212.541 187.773L212.721 188.076L211.038 189.05L209.131 188.934L209.248 189.495L207.771 190.97L208.279 192.667L207.33 193.161L207.212 193.884L206.387 194.146L206.674 195.661L207.479 195.651L207.761 196.247L207.248 196.843L207.618 197.97L207.177 198.182L207.9 198.828L207.951 200.995L206.341 201.429L207.151 203.257L206.935 204.262L207.736 204.677L208.064 205.717L208.202 206.894L207.659 208.182L207.218 208.172L207.228 208.591L208.479 208.525L207.93 210.621L209.356 211.136L209.279 211.591L208.638 211.651L209.069 212.576L210.52 212.798L210.777 213.303L209.69 215.959L210.895 215.879L211.033 216.864L209.551 218.712L209.064 219.798L209.387 220.182L208.572 221.005L208.546 219.879L207.802 219.939L207.556 219.136L206.961 219.939L204.525 219.045L202.109 219.571L201.771 218.358L200.566 218.237L200.576 216.778L199.714 216.237L198.745 216.485L197.976 215.096L194.955 215.47L194.196 215.177L193.668 215.752L192.806 214.449L191.77 214.283L191.693 213.156L190.724 212.222L189.698 212.177L189.047 212.904L188.703 212.187L187.565 211.838L186.626 212.641L184.723 212.661L183.939 212.055L184.113 211.313L183.616 210.384L184.231 210.247L184.734 209.414L184.262 209.192L184.236 208.045L183.657 208.06L183.375 207.172L181.672 207.449L181.651 206.773L180.851 206.606L181.308 205.348L181.862 205.783L182.498 205.429L183.877 202.99L184.431 202.732L182.456 200.864L182.857 200.379L181.938 200.227L181.836 198.348L180.128 198.121L179.307 196.838L176.959 197.545L176.928 197.066L176.061 196.677L175.066 197.197L173.486 197.202L170.855 195.828L170.466 196.308L168.583 196.449L169.194 196.066L167.737 195.697L167.624 194.131L167.599 193.97L167.948 193.121L166.399 191.161L167.071 190.278L165.932 189.273L165.445 189.419L165.46 189.111L165.286 188.177H165.111L165.378 186.959L166.532 187.505L166.753 186.919L166.019 186.515L166.26 186.126L165.091 186.439L164.142 185.348L162.906 185.864L162.665 185.025L161.147 184.515L160.798 184.909L159.054 184.894L158.054 183.53L158.034 181.358L156.849 180.06L156.69 178.899L155.47 178.308L154.936 176.106L155.357 174.818L154.931 174.636L155.044 174.156L156.854 172.99L157.398 171.97L157.367 171.04L156.239 170.399L156.198 169.495L157.439 168.49L156.47 168.475L155.972 167.465L155.285 167.606L154.536 166.045L155.588 165.505L155.762 165.919L156.572 165.823L157.603 164.924L157.362 164.131L159.049 163.677L163.265 163.843L165.034 163.156L167.727 163.318L167.922 161.798L166.871 161.343L166.994 160.899L168.127 160.778L170.03 159.278H170.312L170.804 157.252L169.471 156.995L169.281 155.919L169.804 155.227L171.307 154.798L171.635 154.328L171.055 153.667H170.758L170.558 152.338L169.758 152.136L169.235 151.217L170.03 150.55L170.02 150.409L168.307 148.419L170.035 148.278L171.091 147.672L171.297 146.672L169.999 146.101L169.707 145.848L169.343 145.939L169.358 145.333L166.696 142.151L167.06 140.414L168.076 140.025L168.814 140.288L169.127 140.323L166.809 136.51L166.876 135.353L167.917 134.591L168.071 133.54L166.219 134.278L163.675 129.919V129.793L163.25 128.621L162.26 128.752L162.085 126.959L160.885 125.045L161.244 121.919L164.547 121.192L164.978 121.732L165.491 121.202L166.896 121.358L168.44 119.677L168.583 118.444L169.03 118.242L172.102 118.177L172.086 118.959L173.958 118.596L176.082 118.98L176.671 119.914L178.364 119.409L178.497 120.187L179.087 120.005L182.077 118.591L183.775 117.025L185.267 116.672L184.949 115.596L185.493 113.197L187.026 113.545L187.134 112.853L188.411 111.581Z" fill="#CFE7CD" stroke="white" stroke-width="0.5"/>
<path d="M93.726 55.7374L93.0285 56.2323L93.6644 56.3131L93.3465 57.1162L92.7567 56.2778L93.2131 55.596L93.726 55.7374ZM86.5408 34.6313L87.2075 34.7374L87.0587 35.1667L87.746 35.8687L86.751 36.7121L85.9099 35.9545L85.3817 34.5455L86.0279 33.7727L86.5408 34.6313ZM171.507 30.3333L174.389 30.8636L176.333 31.8131L179.087 37.4394L176.923 36.8939L175.271 37.1667L175.21 36.7778H176.343L175.077 36.3384L174.307 36.8232L174.959 37.096L174.656 37.4545L172.774 37.4192L171.938 37.0202L172.169 35.7626L171.681 34.9192L170.943 34.6768L169.573 35.1717L170.384 35.9798L169.097 35.2222L169.148 32.9545L169.773 31.5354L170.799 30.2121L171.507 30.3333ZM86.8228 30.1869L86.3561 32.3485L85.7561 29.697L86.8228 30.1869ZM97.4442 29.1364L98.0905 29.4646L97.6237 29.6919L96.557 29.2071L97.4442 29.1364ZM93.808 28.8434L93.608 30.601L93.0028 30.8939L93.5054 31.0354L93.29 31.4899L93.7209 32L93.2541 31.5758L92.6643 32.3889L90.9565 32.5707L90.0436 31.4242L90.0128 30.2929L93.808 28.8434ZM88.9102 27.6869L89.5615 28.8131L88.7153 28.8788L87.4126 27.7828L88.9102 27.6869ZM94.844 24.2929L94.562 24.9495L93.9875 24.7828L94.1568 24.3081L94.844 24.2929ZM92.4489 23.2778L91.9258 24.303L89.8744 24.6061L88.6845 25.5253L88.0896 25.0758L88.4742 24.495L91.5925 23.7626L92.4643 22.9495L92.4489 23.2778ZM94.3209 21.7778L93.9209 22.5354L93.0387 22.4343L93.9824 21.3081L94.3209 21.7778ZM83.2789 24.3232L83.2225 24.7778L83.9046 24.9697L83.2687 25.2374L83.761 25.6919L82.5199 25.9192L80.2376 22.7879L82.5302 20.1869L81.8275 21.5657L82.5814 23.7475L83.2789 24.3232ZM87.9357 17.8333L89.941 18.4192L89.818 19.3384L90.3462 19.9293L89.3 22.1061L86.5869 22.0808L83.8072 20.8838L83.6841 19.8939L84.7355 18.3434L87.9357 17.8333ZM85.0791 1.36869L85.9869 1.67172L83.7149 1.74242L83.8636 2.24747L84.7406 2.35859L85.156 3.39899L83.2584 4.36869L82.3045 6.0303L82.8738 9.85859L84.7098 11.0303L90.3872 10.5L91.5104 9.86364V9.16162L92.9669 9.12121L94.5055 10.101L96.08 10.1869L97.2699 9.43939L98.8341 9.95455L100.101 9.52525L101.701 9.65152L105.014 11.3485L108.168 11.2929L111.127 12.5505L111.584 14.803L112.348 14.697L113.046 15.2929L113.42 14.9545L114.661 15.3687L115.933 13.2828L116.81 13.0404L117.708 14.798L117.697 16.0152L118.702 14.101L119.744 14.1111L120.303 13.2727L122.118 12.2273L122.682 11.1414L123.472 11.1111L122.734 12.6616L123.236 13.6717L129.406 15.5758L131.375 18.0051L132.124 18.0354L132.724 16.9798L133.088 17.4343L133.083 15.5556L134.76 16.5455L135.791 19.9394L137.391 21.7374L137.289 22.5152L137.068 21.4495L136.119 21.6919L136.483 23.0859L137.319 22.6414L136.663 23.1465L137.304 23.3283L137.068 29.2172L135.017 31.8636L131.924 33.4748L130.739 33.4697L131.801 34.9192L133.365 34.6768L133.976 34.1717L133.683 34.1212L140.299 32.8889L142.735 34.5101L141.756 35.6414L142.422 38.1566L141.463 38.4343L141.253 39.3434L140.858 39.2879L141.33 41.0303L140.54 42.4646L141.602 41.3586L142.217 41.5758L141.71 41.2879L141.992 39.7222L142.561 39.4242L142.484 38.7424L143.597 36.8131L145.341 36.5859L145.874 35.8535L146.782 35.6162L149.182 36.2626L151.89 38.1465L155.783 39.5808L159.167 42.8333L161.983 42.404L166.594 38.5758L169.461 38.6869L168.178 38.9192L169.681 39.3384L171.451 38.8182L171.733 38.0606L172.533 37.6869L172.42 38.2121L172.722 37.9141L173.158 38.2677L172.964 39.1111L171.348 40.6111L171.43 40.1515L170.722 40.1717L170.871 40.6465L171.21 40.5202L171.897 48.7222L167.286 51.8737L164.619 54.904L162.983 54.6667L162.624 53.7323L162.024 55.4748L160.732 56.904L161.819 59.6364L164.609 59.995L165.081 60.6919L164.999 61.7828L165.696 61.9141L165.358 63.7525L167.712 64.5707L165.942 65.0909L165.665 64.6061L165.978 64.1566L164.937 63.6364L163.763 65.1313L162.85 65.3182L162.342 66.2828L161.383 66.4798L160.634 67.6364L161.434 70.8333L161.086 72.1313L160.947 73.0556L162.475 73.8182L162.691 74.7626L163.947 75.7677L166.322 75.9141L166.224 76.4242L166.942 76.7071L167.276 78.6818L166.527 79.7273L165.917 82.8687L163.947 83.2323L163.568 82.596L163.034 82.6869L163.409 84.4394L162.778 85.6111L163.122 85.9949L161.886 86.1616L160.88 87.6414L159.101 87.899L158.788 89.1111L157.511 88.8232L156.839 89.197L156.28 93.0505L155.598 94.0253L155.095 94.2576L152.495 93.5051L148.495 90.8081L146.956 90.7576L146.218 90.2929L146.797 89.4596L145.695 89.2879L144.012 87.6515L143.038 85.5707L142.258 86.0404L141.422 85.4798L141.058 82.7323L142.633 82.0505L142.376 80.6111L143.381 79.4546L142.387 79.197L142.643 78.6869L142.181 77.8485L140.833 77.0707L141.366 76.3889L141.284 75.6515L142.104 75.3737L142.433 74.5859L142.479 74.2071L141.648 73.7879L140.094 75.1566L138.771 74.7778L138.34 75.303L138.679 75.6465L138.258 77.0758L136.083 76.904L135.432 78.7879L133.063 78.4596L132.54 80.0505L130.765 82.0202L129.58 81.6111L129.478 80.6212L128.688 80.3737L128.642 79.5707L127.303 83.6313L125.442 83.1818L121.416 80.3687L119.959 76.202L117.349 73.7929L115.338 69.7525L113.692 67.5505L110.271 66.1212L103.573 66.404L103.065 65.4647L101.993 65.0909L100.357 63.1212L99.6034 60.6616L98.9213 59.9293L99.588 59.3939L98.8905 59.803L97.9981 58.2828L97.075 58.2323L99.5111 57.0556L100.865 57.3232L100.609 57.8788L101.039 57.8737L101.055 57.4596L101.26 57.8535L102.075 57.6515L102.947 56.4495L102.917 56.1162L102.091 56.0606L102.737 55.7626L101.752 54.5859L102.147 54.4596L101.701 54.4545L101.086 52.4091L100.044 52.2677L98.8751 53.0505L98.9982 52.4798L98.7982 53.0606L97.1981 50.197L98.2494 46.8838L98.193 44.0707L97.7725 43.596L96.3775 44.1616L95.1107 43.5606L93.9619 43.7273L92.9208 44.9596L91.8438 44.4646L90.4488 42.4444L90.7309 43.5101L90.0539 42.9091L90.6488 43.904L89.7103 42.6515L90.5873 40.096L91.054 39.9596L90.8334 40.5455L91.695 40.9141L92.131 40.1465L93.2798 39.9192L92.7977 40.1061L93.3054 39.1061L92.7874 39.3939L92.1053 39.101L91.9463 39.4748L90.5411 39.2222L90.9514 38.1566L97.593 36.7475L99.2341 37.1364L100.855 36.0455L102.137 34.3788L103.486 34.0859L103.676 33.3333L104.645 33.7374L105.081 33.3788L104.399 33.5859L103.527 33.1818L103.635 32.1717L102.917 30.9596L102.111 31.4394L101.173 33.7525L100.716 33.6111L100.988 33.7929L100.075 34.3081L98.3571 34.2727L97.1006 33.7172L97.4853 32.8485L97.0852 32.1566L99.3265 30.2475L99.1931 28.5303L99.5931 26.9596L99.9368 26.9293L99.1982 26.6667L99.5111 25.995L99.0341 26.6414L97.3468 26.6667L97.1981 26.2879L98.7161 25.5101L98.2238 25.6313L97.4648 23.5657L95.1979 22.0657L94.9517 20.3838L93.3772 19.596L93.249 19.2273L93.8439 18.8333L93.4285 17.1263L90.536 13.1818L90.3154 10.7828L87.469 10.8586L84.2893 12.8131L83.084 12.1515L82.6584 11.2121L81.8737 11.0051L81.6942 11.8636L80.571 12.6212L80.5146 18.7424L79.9351 18.1818L80.4684 9.23737L83.6738 1.32323L84.2534 1L85.0791 1.36869Z" fill="#CFE7CD" stroke="white" stroke-width="0.5"/>
<path d="M159.055 184.894L160.798 184.909L161.147 184.515L162.665 185.025L162.906 185.864L164.142 185.348L165.091 186.439L166.26 186.126L166.019 186.515L166.753 186.919L166.532 187.505L165.378 186.96L165.111 188.177H165.286L165.46 189.111L165.445 189.419L165.932 189.273L167.071 190.278L166.399 191.162L167.948 193.121L167.599 193.97L167.625 194.131L167.737 195.697L169.194 196.066L168.584 196.449L170.466 196.308L170.856 195.828L173.487 197.202L175.066 197.197L176.061 196.677L176.928 197.066L176.959 197.545L179.308 196.838L180.128 198.121L181.836 198.348L181.939 200.227L182.857 200.379L182.457 200.864L184.431 202.732L183.877 202.99L182.498 205.429L181.862 205.783L181.308 205.348L180.851 206.606L181.651 206.773L181.672 207.449L183.375 207.172L183.657 208.061L184.236 208.045L184.262 209.192L184.734 209.414L184.231 210.247L183.616 210.384L184.113 211.313L183.939 212.056L184.723 212.662L186.626 212.641L187.565 211.838L188.703 212.187L189.047 212.904L189.698 212.177L190.724 212.222L191.693 213.157L191.77 214.283L192.806 214.449L193.668 215.753L194.196 215.177L194.955 215.47L197.976 215.096L198.745 216.485L199.714 216.237L200.576 216.778L200.566 218.237L201.771 218.359L202.11 219.571L204.525 219.045L206.961 219.939L207.556 219.136L207.802 219.939L208.546 219.879L208.572 221.005L209.387 220.182L209.064 219.798L209.551 218.712L211.033 216.864L210.895 215.879L209.69 215.96L210.777 213.303L212.541 212.631L213.193 213.025L213.351 213.808L214.393 213.586L214.926 214.081L216.454 213.636L216.87 214.53L217.419 214.515L217.978 214.677L218.106 217.015L218.357 216.525L219.152 216.651L219.219 217.576L218.752 217.924L220.342 218.596L221.393 218.066L221.921 220.96L222.911 221.98L222.414 222.828L221.829 222.485L219.101 222.965L218.542 222.601L218.095 222.859L218.208 223.338L217.326 223.242L216.049 224.768L215.936 225.864L215.249 226.045L215.126 225.096L214.7 225.576L213.757 225.313L212.91 226.141L212.875 226.869L211.541 227.066L211.244 226.525L211.351 227.222L211.003 226.788L210.649 227.53L209.72 227L209.828 228.596L210.915 228.515L210.982 228.914L210.254 230.01L209.331 229.763L208.915 231.182L210.218 231.227L210.459 231.707L209.828 232.288L210.09 233.409L211.998 233.924L211.895 234.98L210.203 235.944L210.151 236.672L208.069 236.242L207.761 237.52L206.428 236.697L205.982 239.025L206.797 238.99L206.869 239.364L205.607 239.838L204.879 239.273L204.156 239.389L204.038 240.424L203.381 240.672L202.479 240.702L202.151 239.833L202.751 238.525L201.633 237.449L202.186 236.949L201.586 236.47L200.961 237.121L201.109 237.722L199.114 238.96L199.217 240.389L197.781 240.601L197.299 241.338L197.889 242.369L199.309 242.066L199.325 242.798L200.417 243.909L199.54 244.712L199.884 245.581L199.314 245.162L198.114 245.843L198.253 246.48L199.186 246.657L199.037 247.106L195.817 248.813V248.151L194.329 247.298L194.104 247.763L193.447 247.545L193.806 247.985L193.006 247.823L192.191 248.48L191.996 248.157L189.273 248.909L188.257 248.131L187.529 248.278L187.16 249.015L185.918 249.545L185.872 248.485L184.513 248.242L184.636 246.753L184.041 246.662L183.328 247.273L183.58 246.672L182.59 246.035L182.58 243.535L183.077 243.657L183.257 243.258L182.934 242.657L180.154 242.177L180.19 242.682L179.354 242.793L179.379 243.687L178.718 243.758L178.354 244.455L178.225 243.975L176.943 244.293L176.959 245.793L177.569 246.727L177.277 248.263L178.143 250.273L177.389 250.712L177.872 251.485L177.384 251.444L177.646 252.995L177.066 253.626L177.364 253.869H177.23L177.061 254.889L175.22 253.657L175.061 254.662L174.589 254.823L174.799 254.278L173.62 254.03L173.204 253.318L174.005 251.778L173.353 250.641L172.702 250.843L172.615 249.96L171.753 250.025L171.635 250.707L170.291 251.101L170.055 250.293L168.64 250.025L168.773 250.828L168.353 250.909L166.753 248.667L166.101 248.843L165.855 248.939L165.301 249.268L164.809 248.46L164.352 248.889L163.368 248.662L162.491 249.318L161.865 249.05L160.834 250.389L159.578 250.071L159.485 251L159.983 251.076L159.567 252.263L160.419 252.525L161.362 253.651L162.419 253.732L162.506 254.348H162.686L163.799 254.545L163.834 256.096L163.05 256.429L162.352 255.727L161.311 256.242L160.075 255.747L160.019 257.753L159.593 258.091L159.044 257.722H158.875L157.701 256.818L156.736 257.167L156.018 256.808L155.685 256.035L156.126 255.859L155.721 255.151L156.024 254.732L155.485 254.742L155.906 253.672L155.511 252.919L155.762 251.616L154.516 251.404L153.957 250.091L153.562 250.005L152.987 250.788L152.895 250.303L152.228 250.53L152.239 249.52L151.874 249.611H151.633L150.946 248.192L149.079 248.586L148.731 247.833L149.325 246.985L148.295 246.662L148.643 246.283L148.197 246.343L147.187 244.985L146.961 243.545L146.043 243.561L144.53 242.581L143.751 242.682L143.735 241.677L142.976 241.202L142.822 240.505L142.022 240.626L141.894 241.081L141.094 240.601L140.827 241.081L139.704 240.02L138.473 241.424L138.53 241.889L137.524 242.414L137.422 241.753L138.16 240.409L137.371 237.636L137.766 236.99L138.853 237.035L137.919 234.581L136.171 234.313L134.637 234.773L134.483 235.308L135.099 236.086L134.842 236.687L132.114 236.136L132.201 234.626L133.632 233.419L133.16 232.838L134.196 231.141L134.145 230.298L133.596 230.126L133.729 229.359L134.632 229.379L134.314 228.066L134.611 226.97L135.34 226.424L135.55 226.5L136.068 226.732L136.36 226.157L137.048 226.288L137.407 225.359L136.863 225.581L136.899 224.697L138.135 223.843L138.094 223.449L137.709 223.49L137.812 222.934L136.55 221.843L135.232 222.545L135.76 221.338L135.001 221.288L134.652 221.758L134.534 220.803L136.555 221.197L136.955 220.742L137.114 221.045L138.227 220.677L137.566 220.449L137.494 219.515L136.796 218.803L137.442 217.192L139.514 217.657L140.063 217.328L140.956 218.227L142.843 217.46L142.474 216.909L143.187 216.53L142.874 216.061L140.766 214.818L141.197 214.338L140.899 213.54L141.858 211.919L140.058 210.747L141.571 210.04L142.648 212.096L143.063 211.439L142.751 210.131L143.894 208.364L142.545 208.02L141.561 207.015L141.002 207.247L140.689 206.561L139.838 206.838L138.391 206.268L138.689 205.424L137.689 204.884L137.96 203.601L135.242 203.298L135.135 202.485L134.16 202.136L134.458 201.495L133.693 199.712L133.796 198.636L136.171 197.121L136.468 196.318L137.401 196.298L137.668 195.444L138.386 196.424L138.776 195.566L139.776 195.783H139.981L141.181 195.737L140.776 195.106L141.822 194.995L142.248 194.101L141.986 193.763L142.761 192.924L143.233 193.712L143.781 193.722L144.187 193.071L145.915 192.525L146.197 191.47L147.346 191.242L148.577 188.965V188.657L148.243 187.692L150.105 187.449H150.3L152.321 188.439L153.11 189.424L154.48 189.308L155.952 188.101L157.608 189.187L157.901 188.298L157.024 187.854L156.88 186.682L157.347 186.707L157.024 186.025L158.449 185.581L158.229 185.106L159.055 184.894Z" fill="#CFE7CD" stroke="white" stroke-width="0.5"/>
</svg>
